  0
SECTION
  2
HEADER
  9
$ACADVER
  1
AC1009
  9
$INSBASE
 10
0.000000
 20
0.000000
  9
$LIMMIN
 10
-1270.000000
 20
-1269.900000
  9
$LIMMAX
 10
11430.000000
 20
11430.100000
  9
$EXTMIN
 10
-1270.000000
 20
-1269.900000
  9
$EXTMAX
 10
11430.000000
 20
11430.100000
  9
$ATTMODE
 70
0
  9
$LUNITS
 70
2
  9
$LUPREC
 70
3
  9
$THICKNESS
 40
2.001520
  0
ENDSEC
  0
SECTION
  2
TABLES
  0
TABLE
  2
LTYPE
 70
1
  0
LTYPE
  3
Solid Line
  2
CONTINUOUS
 70
0
 72
65
 73
0
 40
0.000000
  0
ENDTAB
  0
TABLE
  2
LAYER
 70
3
  0
LAYER
  2
BG_OUTLINE
 70
0
 62
254
  6
CONTINUOUS
  0
LAYER
  2
PG_SILKSCREEN_TOP
 70
0
 62
7
  6
CONTINUOUS
  0
LAYER
  2
PIN_TOP
 70
0
 62
12
  6
CONTINUOUS
  0
ENDTAB
  0
TABLE
  2
STYLE
 70
1
  0
STYLE
  2
STANDARD
 70
0
 40
0.000000
 41
1.000000
 50
0.000000
 71
0
 42
0.200000
  3
txt
  0
ENDTAB
  0
ENDSEC
  0
SECTION
  2
BLOCKS
  0
BLOCK
  8
0
  2
FIGURE_CIRCLE
 70
0
 10
0.000000
 20
0.000000
  0
CIRCLE
  8
0
 10
0.000000
 20
0.000000
 40
0.500000
  0
ENDBLK
  0
BLOCK
  8
0
  2
FIGURE_SQUARE
 70
0
 10
0.000000
 20
0.000000
  0
POLYLINE
  8
0
 66
1
 70
1
 40
0.000000
 41
0.000000
 39
0.000000
  0
VERTEX
  8
0
 10
-0.500000
 20
-0.500000
 40
0.000000
 41
0.000000
 42
0.000000
  0
VERTEX
  8
0
 10
-0.500000
 20
0.500000
 40
0.000000
 41
0.000000
 42
0.000000
  0
VERTEX
  8
0
 10
0.500000
 20
0.500000
 40
0.000000
 41
0.000000
 42
0.000000
  0
VERTEX
  8
0
 10
0.500000
 20
-0.500000
 40
0.000000
 41
0.000000
 42
0.000000
  0
SEQEND
  0
ENDBLK
  0
BLOCK
  8
0
  2
FIGURE_HEX
 70
0
 10
0.000000
 20
0.000000
  0
POLYLINE
  8
0
 66
1
 70
1
 40
0.000000
 41
0.000000
 39
0.000000
  0
VERTEX
  8
0
 10
-0.500000
 20
0.000000
 40
0.000000
 41
0.000000
 42
0.000000
  0
VERTEX
  8
0
 10
-0.250000
 20
0.500000
 40
0.000000
 41
0.000000
 42
0.000000
  0
VERTEX
  8
0
 10
0.250000
 20
0.500000
 40
0.000000
 41
0.000000
 42
0.000000
  0
VERTEX
  8
0
 10
0.500000
 20
0.000000
 40
0.000000
 41
0.000000
 42
0.000000
  0
VERTEX
  8
0
 10
0.250000
 20
-0.500000
 40
0.000000
 41
0.000000
 42
0.000000
  0
VERTEX
  8
0
 10
-0.250000
 20
-0.500000
 40
0.000000
 41
0.000000
 42
0.000000
  0
SEQEND
  0
ENDBLK
  0
BLOCK
  8
0
  2
FIGURE_OCT
 70
0
 10
0.000000
 20
0.000000
  0
POLYLINE
  8
0
 66
1
 70
1
 40
0.000000
 41
0.000000
 39
0.000000
  0
VERTEX
  8
0
 10
-0.500000
 20
-0.207100
 40
0.000000
 41
0.000000
 42
0.000000
  0
VERTEX
  8
0
 10
-0.500000
 20
0.207100
 40
0.000000
 41
0.000000
 42
0.000000
  0
VERTEX
  8
0
 10
-0.207100
 20
0.500000
 40
0.000000
 41
0.000000
 42
0.000000
  0
VERTEX
  8
0
 10
0.207100
 20
0.500000
 40
0.000000
 41
0.000000
 42
0.000000
  0
VERTEX
  8
0
 10
0.500000
 20
0.207100
 40
0.000000
 41
0.000000
 42
0.000000
  0
VERTEX
  8
0
 10
0.500000
 20
-0.207100
 40
0.000000
 41
0.000000
 42
0.000000
  0
VERTEX
  8
0
 10
0.207100
 20
-0.500000
 40
0.000000
 41
0.000000
 42
0.000000
  0
VERTEX
  8
0
 10
-0.207100
 20
-0.500000
 40
0.000000
 41
0.000000
 42
0.000000
  0
SEQEND
  0
ENDBLK
  0
BLOCK
  8
0
  2
FIGURE_OBLONG
 70
0
 10
0.000000
 20
0.000000
  0
POLYLINE
  8
0
 66
1
 70
1
 40
0.000000
 41
0.000000
 39
0.000000
  0
VERTEX
  8
0
 10
-0.500000
 20
-0.125000
 40
0.000000
 41
0.000000
 42
0.000000
  0
VERTEX
  8
0
 10
-0.500000
 20
0.125000
 40
0.000000
 41
0.000000
 42
0.000000
  0
VERTEX
  8
0
 10
-0.416000
 20
0.375000
 40
0.000000
 41
0.000000
 42
0.000000
  0
VERTEX
  8
0
 10
-0.250000
 20
0.500000
 40
0.000000
 41
0.000000
 42
0.000000
  0
VERTEX
  8
0
 10
0.250000
 20
0.500000
 40
0.000000
 41
0.000000
 42
0.000000
  0
VERTEX
  8
0
 10
0.416000
 20
0.375000
 40
0.000000
 41
0.000000
 42
0.000000
  0
VERTEX
  8
0
 10
0.500000
 20
0.125000
 40
0.000000
 41
0.000000
 42
0.000000
  0
VERTEX
  8
0
 10
0.500000
 20
-0.125000
 40
0.000000
 41
0.000000
 42
0.000000
  0
VERTEX
  8
0
 10
0.416000
 20
-0.375000
 40
0.000000
 41
0.000000
 42
0.000000
  0
VERTEX
  8
0
 10
0.250000
 20
-0.500000
 40
0.000000
 41
0.000000
 42
0.000000
  0
VERTEX
  8
0
 10
-0.250000
 20
-0.500000
 40
0.000000
 41
0.000000
 42
0.000000
  0
VERTEX
  8
0
 10
-0.416000
 20
-0.375000
 40
0.000000
 41
0.000000
 42
0.000000
  0
SEQEND
  0
ENDBLK
  0
BLOCK
  8
0
  2
FIGURE_TRI
 70
0
 10
0.000000
 20
0.000000
  0
POLYLINE
  8
0
 66
1
 70
1
 40
0.000000
 41
0.000000
 39
0.000000
  0
VERTEX
  8
0
 10
-0.500000
 20
-0.500000
 40
0.000000
 41
0.000000
 42
0.000000
  0
VERTEX
  8
0
 10
0.000000
 20
0.500000
 40
0.000000
 41
0.000000
 42
0.000000
  0
VERTEX
  8
0
 10
0.500000
 20
-0.500000
 40
0.000000
 41
0.000000
 42
0.000000
  0
SEQEND
  0
ENDBLK
  0
BLOCK
  8
0
  2
FIGURE_CROSS
 70
0
 10
0.000000
 20
0.000000
  0
POLYLINE
  8
0
 66
1
 70
0
 40
0.000000
 41
0.000000
 39
0.000000
  0
VERTEX
  8
0
 10
-0.500000
 20
0.000000
 40
0.000000
 41
0.000000
 42
0.000000
  0
VERTEX
  8
0
 10
0.500000
 20
0.000000
 40
0.000000
 41
0.000000
 42
0.000000
  0
SEQEND
  0
POLYLINE
  8
0
 66
1
 70
0
 40
0.000000
 41
0.000000
 39
0.000000
  0
VERTEX
  8
0
 10
0.000000
 20
0.500000
 40
0.000000
 41
0.000000
 42
0.000000
  0
VERTEX
  8
0
 10
0.000000
 20
-0.500000
 40
0.000000
 41
0.000000
 42
0.000000
  0
SEQEND
  0
ENDBLK
  0
BLOCK
  8
0
  2
FIGURE_DIAMOND
 70
0
 10
0.000000
 20
0.000000
  0
POLYLINE
  8
0
 66
1
 70
1
 40
0.000000
 41
0.000000
 39
0.000000
  0
VERTEX
  8
0
 10
-0.500000
 20
0.000000
 40
0.000000
 41
0.000000
 42
0.000000
  0
VERTEX
  8
0
 10
0.000000
 20
0.500000
 40
0.000000
 41
0.000000
 42
0.000000
  0
VERTEX
  8
0
 10
0.500000
 20
0.000000
 40
0.000000
 41
0.000000
 42
0.000000
  0
VERTEX
  8
0
 10
0.000000
 20
-0.500000
 40
0.000000
 41
0.000000
 42
0.000000
  0
SEQEND
  0
ENDBLK
  0
ENDSEC
  0
SECTION
  2
ENTITIES
  0
CIRCLE
  8
PIN_TOP
 10
3.141066
 20
52.592859
 40
0.400050
  0
CIRCLE
  8
PIN_TOP
 10
3.141066
 20
56.092979
 40
0.400050
  0
POLYLINE
  8
PIN_TOP
 66
1
 70
1
 40
0.000000
 41
0.000000
 39
0.000000
  0
VERTEX
  8
PIN_TOP
 10
3.640938
 20
51.592861
 40
0.000000
 41
0.000000
 42
0.000000
  0
VERTEX
  8
PIN_TOP
 10
6.641186
 20
51.592861
 40
0.000000
 41
0.000000
 42
0.000000
  0
VERTEX
  8
PIN_TOP
 10
6.641186
 20
53.092985
 40
0.000000
 41
0.000000
 42
0.000000
  0
VERTEX
  8
PIN_TOP
 10
3.141066
 20
53.092985
 40
0.000000
 41
0.000000
 42
0.000000
  0
VERTEX
  8
PIN_TOP
 10
3.141066
 20
52.592859
 40
0.000000
 41
0.000000
 42
0.000000
  0
VERTEX
  8
PIN_TOP
 10
-1.359052
 20
52.592859
 40
0.000000
 41
0.000000
 42
0.000000
  0
VERTEX
  8
PIN_TOP
 10
-1.359052
 20
52.092987
 40
0.000000
 41
0.000000
 42
0.000000
  0
VERTEX
  8
PIN_TOP
 10
-1.359052
 20
51.592861
 40
0.000000
 41
0.000000
 42
0.000000
  0
VERTEX
  8
PIN_TOP
 10
3.141066
 20
51.592861
 40
0.000000
 41
0.000000
 42
0.000000
  0
SEQEND
  0
POLYLINE
  8
PIN_TOP
 66
1
 70
1
 40
0.000000
 41
0.000000
 39
0.000000
  0
VERTEX
  8
PIN_TOP
 10
3.640938
 20
55.592853
 40
0.000000
 41
0.000000
 42
0.000000
  0
VERTEX
  8
PIN_TOP
 10
6.641186
 20
55.592853
 40
0.000000
 41
0.000000
 42
0.000000
  0
VERTEX
  8
PIN_TOP
 10
6.641186
 20
57.092977
 40
0.000000
 41
0.000000
 42
0.000000
  0
VERTEX
  8
PIN_TOP
 10
-1.359052
 20
57.092977
 40
0.000000
 41
0.000000
 42
0.000000
  0
VERTEX
  8
PIN_TOP
 10
-1.359052
 20
56.092979
 40
0.000000
 41
0.000000
 42
0.000000
  0
VERTEX
  8
PIN_TOP
 10
3.141066
 20
56.092979
 40
0.000000
 41
0.000000
 42
0.000000
  0
VERTEX
  8
PIN_TOP
 10
3.141066
 20
55.592853
 40
0.000000
 41
0.000000
 42
0.000000
  0
SEQEND
  0
POLYLINE
  8
PIN_TOP
 66
1
 70
1
 40
0.000000
 41
0.000000
 39
0.000000
  0
VERTEX
  8
PIN_TOP
 10
6.640970
 20
53.842920
 40
0.000000
 41
0.000000
 42
0.000000
  0
VERTEX
  8
PIN_TOP
 10
3.115475
 20
53.842920
 40
0.000000
 41
0.000000
 42
0.000000
  0
VERTEX
  8
PIN_TOP
 10
3.115475
 20
54.842918
 40
0.000000
 41
0.000000
 42
0.000000
  0
VERTEX
  8
PIN_TOP
 10
6.640970
 20
54.842918
 40
0.000000
 41
0.000000
 42
0.000000
  0
SEQEND
  0
POLYLINE
  8
PG_SILKSCREEN_TOP
 66
1
 70
0
 40
0.000000
 41
0.000000
 39
0.000000
  0
VERTEX
  8
PG_SILKSCREEN_TOP
 10
-1.058824
 20
51.242849
 40
0.150114
 41
0.150114
 42
0.000000
  0
VERTEX
  8
PG_SILKSCREEN_TOP
 10
6.941160
 20
51.242849
 40
0.150114
 41
0.150114
 42
0.000000
  0
VERTEX
  8
PG_SILKSCREEN_TOP
 10
6.941160
 20
57.442989
 40
0.150114
 41
0.150114
 42
0.000000
  0
VERTEX
  8
PG_SILKSCREEN_TOP
 10
-1.058824
 20
57.442989
 40
0.150114
 41
0.150114
 42
0.000000
  0
SEQEND
  0
POLYLINE
  8
BG_OUTLINE
 66
1
 70
0
 40
0.000000
 41
0.000000
 39
0.000000
  0
VERTEX
  8
BG_OUTLINE
 10
0.000000
 20
56.070119
 40
0.000000
 41
0.000000
 42
0.000000
  0
VERTEX
  8
BG_OUTLINE
 10
3.115666
 20
56.070119
 40
0.000000
 41
0.000000
 42
0.000000
  0
SEQEND
  0
POLYLINE
  8
BG_OUTLINE
 66
1
 70
0
 40
0.000000
 41
0.000000
 39
0.000000
  0
VERTEX
  8
BG_OUTLINE
 10
3.115666
 20
56.070119
 40
0.000000
 41
0.000000
 42
0.000000
  0
VERTEX
  8
BG_OUTLINE
 10
3.115666
 20
55.587519
 40
0.000000
 41
0.000000
 42
0.000000
  0
SEQEND
  0
POLYLINE
  8
BG_OUTLINE
 66
1
 70
0
 40
0.000000
 41
0.000000
 39
0.000000
  0
VERTEX
  8
BG_OUTLINE
 10
3.115666
 20
55.587519
 40
0.000000
 41
0.000000
 42
0.000000
  0
VERTEX
  8
BG_OUTLINE
 10
3.115666
 20
52.615719
 40
0.000000
 41
0.000000
 42
0.000000
  0
SEQEND
  0
POLYLINE
  8
BG_OUTLINE
 66
1
 70
0
 40
0.000000
 41
0.000000
 39
0.000000
  0
VERTEX
  8
BG_OUTLINE
 10
3.115666
 20
52.615719
 40
0.000000
 41
0.000000
 42
0.000000
  0
VERTEX
  8
BG_OUTLINE
 10
3.090266
 20
52.615719
 40
0.000000
 41
0.000000
 42
0.000000
  0
SEQEND
  0
POLYLINE
  8
PIN_TOP
 66
1
 70
1
 40
0.000000
 41
0.000000
 39
0.000000
  0
VERTEX
  8
PIN_TOP
 10
65.287436
 20
3.765042
 40
0.000000
 41
0.000000
 42
0.000000
  0
VERTEX
  8
PIN_TOP
 10
64.237425
 20
3.765042
 40
0.000000
 41
0.000000
 42
0.000000
  0
VERTEX
  8
PIN_TOP
 10
64.237425
 20
5.964936
 40
0.000000
 41
0.000000
 42
0.000000
  0
VERTEX
  8
PIN_TOP
 10
65.287436
 20
5.964936
 40
0.000000
 41
0.000000
 42
0.000000
  0
SEQEND
  0
POLYLINE
  8
PIN_TOP
 66
1
 70
1
 40
0.000000
 41
0.000000
 39
0.000000
  0
VERTEX
  8
PIN_TOP
 10
68.287633
 20
3.765042
 40
0.000000
 41
0.000000
 42
0.000000
  0
VERTEX
  8
PIN_TOP
 10
67.237623
 20
3.765042
 40
0.000000
 41
0.000000
 42
0.000000
  0
VERTEX
  8
PIN_TOP
 10
67.237623
 20
5.964936
 40
0.000000
 41
0.000000
 42
0.000000
  0
VERTEX
  8
PIN_TOP
 10
68.287633
 20
5.964936
 40
0.000000
 41
0.000000
 42
0.000000
  0
SEQEND
  0
POLYLINE
  8
PIN_TOP
 66
1
 70
1
 40
0.000000
 41
0.000000
 39
0.000000
  0
VERTEX
  8
PIN_TOP
 10
66.787535
 20
5.840082
 40
0.000000
 41
0.000000
 42
0.000000
  0
VERTEX
  8
PIN_TOP
 10
65.737524
 20
5.840082
 40
0.000000
 41
0.000000
 42
0.000000
  0
VERTEX
  8
PIN_TOP
 10
65.737524
 20
6.890093
 40
0.000000
 41
0.000000
 42
0.000000
  0
VERTEX
  8
PIN_TOP
 10
66.787535
 20
6.890093
 40
0.000000
 41
0.000000
 42
0.000000
  0
SEQEND
  0
POLYLINE
  8
PIN_TOP
 66
1
 70
1
 40
0.000000
 41
0.000000
 39
0.000000
  0
VERTEX
  8
PIN_TOP
 10
66.787535
 20
2.839885
 40
0.000000
 41
0.000000
 42
0.000000
  0
VERTEX
  8
PIN_TOP
 10
65.737524
 20
2.839885
 40
0.000000
 41
0.000000
 42
0.000000
  0
VERTEX
  8
PIN_TOP
 10
65.737524
 20
3.889896
 40
0.000000
 41
0.000000
 42
0.000000
  0
VERTEX
  8
PIN_TOP
 10
66.787535
 20
3.889896
 40
0.000000
 41
0.000000
 42
0.000000
  0
SEQEND
  0
POLYLINE
  8
PG_SILKSCREEN_TOP
 66
1
 70
0
 40
0.000000
 41
0.000000
 39
0.000000
  0
VERTEX
  8
PG_SILKSCREEN_TOP
 10
64.962532
 20
3.564992
 40
0.100101
 41
0.100101
 42
0.000000
  0
VERTEX
  8
PG_SILKSCREEN_TOP
 10
67.562527
 20
3.564992
 40
0.100101
 41
0.100101
 42
0.000000
  0
VERTEX
  8
PG_SILKSCREEN_TOP
 10
67.562527
 20
6.164986
 40
0.100101
 41
0.100101
 42
0.000000
  0
VERTEX
  8
PG_SILKSCREEN_TOP
 10
64.962532
 20
6.164986
 40
0.100101
 41
0.100101
 42
0.000000
  0
VERTEX
  8
PG_SILKSCREEN_TOP
 10
64.962532
 20
3.564992
 40
0.100101
 41
0.100101
 42
0.000000
  0
SEQEND
  0
POLYLINE
  8
PG_SILKSCREEN_TOP
 66
1
 70
0
 40
0.000000
 41
0.000000
 39
0.000000
  0
VERTEX
  8
PG_SILKSCREEN_TOP
 10
67.162426
 20
4.864989
 40
0.100101
 41
0.100101
 42
1.000000
  0
VERTEX
  8
PG_SILKSCREEN_TOP
 10
65.362633
 20
4.864989
 40
0.100101
 41
0.100101
 42
1.000000
  0
VERTEX
  8
PG_SILKSCREEN_TOP
 10
67.162426
 20
4.864989
 40
0.100101
 41
0.100101
 42
0.000000
  0
SEQEND
  0
POLYLINE
  8
PG_SILKSCREEN_TOP
 66
1
 70
0
 40
0.000000
 41
0.000000
 39
0.000000
  0
VERTEX
  8
PG_SILKSCREEN_TOP
 10
66.962528
 20
4.864989
 40
0.100101
 41
0.100101
 42
1.000000
  0
VERTEX
  8
PG_SILKSCREEN_TOP
 10
65.562531
 20
4.864989
 40
0.100101
 41
0.100101
 42
1.000000
  0
VERTEX
  8
PG_SILKSCREEN_TOP
 10
66.962528
 20
4.864989
 40
0.100101
 41
0.100101
 42
0.000000
  0
SEQEND
  0
POLYLINE
  8
PG_SILKSCREEN_TOP
 66
1
 70
0
 40
0.000000
 41
0.000000
 39
0.000000
  0
VERTEX
  8
PG_SILKSCREEN_TOP
 10
66.462427
 20
4.864989
 40
0.100101
 41
0.100101
 42
1.000000
  0
VERTEX
  8
PG_SILKSCREEN_TOP
 10
66.062631
 20
4.864989
 40
0.100101
 41
0.100101
 42
1.000000
  0
VERTEX
  8
PG_SILKSCREEN_TOP
 10
66.462427
 20
4.864989
 40
0.100101
 41
0.100101
 42
0.000000
  0
SEQEND
  0
POLYLINE
  8
PG_SILKSCREEN_TOP
 66
1
 70
0
 40
0.000000
 41
0.000000
 39
0.000000
  0
VERTEX
  8
PG_SILKSCREEN_TOP
 10
65.652421
 20
5.067884
 40
0.100101
 41
0.100101
 42
0.000000
  0
VERTEX
  8
PG_SILKSCREEN_TOP
 10
66.262529
 20
5.064887
 40
0.100101
 41
0.100101
 42
0.000000
  0
VERTEX
  8
PG_SILKSCREEN_TOP
 10
66.872637
 20
5.064887
 40
0.100101
 41
0.100101
 42
0.000000
  0
SEQEND
  0
POLYLINE
  8
PG_SILKSCREEN_TOP
 66
1
 70
0
 40
0.000000
 41
0.000000
 39
0.000000
  0
VERTEX
  8
PG_SILKSCREEN_TOP
 10
65.652421
 20
4.665091
 40
0.100101
 41
0.100101
 42
0.000000
  0
VERTEX
  8
PG_SILKSCREEN_TOP
 10
66.872637
 20
4.665091
 40
0.100101
 41
0.100101
 42
0.000000
  0
SEQEND
  0
POLYLINE
  8
PIN_TOP
 66
1
 70
1
 40
0.000000
 41
0.000000
 39
0.000000
  0
VERTEX
  8
PIN_TOP
 10
98.481947
 20
29.024923
 40
0.000000
 41
0.000000
 42
0.000000
  0
VERTEX
  8
PIN_TOP
 10
98.481947
 20
27.974912
 40
0.000000
 41
0.000000
 42
0.000000
  0
VERTEX
  8
PIN_TOP
 10
96.282053
 20
27.974912
 40
0.000000
 41
0.000000
 42
0.000000
  0
VERTEX
  8
PIN_TOP
 10
96.282053
 20
29.024923
 40
0.000000
 41
0.000000
 42
0.000000
  0
SEQEND
  0
POLYLINE
  8
PIN_TOP
 66
1
 70
1
 40
0.000000
 41
0.000000
 39
0.000000
  0
VERTEX
  8
PIN_TOP
 10
98.481947
 20
32.025120
 40
0.000000
 41
0.000000
 42
0.000000
  0
VERTEX
  8
PIN_TOP
 10
98.481947
 20
30.975110
 40
0.000000
 41
0.000000
 42
0.000000
  0
VERTEX
  8
PIN_TOP
 10
96.282053
 20
30.975110
 40
0.000000
 41
0.000000
 42
0.000000
  0
VERTEX
  8
PIN_TOP
 10
96.282053
 20
32.025120
 40
0.000000
 41
0.000000
 42
0.000000
  0
SEQEND
  0
POLYLINE
  8
PIN_TOP
 66
1
 70
1
 40
0.000000
 41
0.000000
 39
0.000000
  0
VERTEX
  8
PIN_TOP
 10
96.406907
 20
30.525022
 40
0.000000
 41
0.000000
 42
0.000000
  0
VERTEX
  8
PIN_TOP
 10
96.406907
 20
29.475011
 40
0.000000
 41
0.000000
 42
0.000000
  0
VERTEX
  8
PIN_TOP
 10
95.356896
 20
29.475011
 40
0.000000
 41
0.000000
 42
0.000000
  0
VERTEX
  8
PIN_TOP
 10
95.356896
 20
30.525022
 40
0.000000
 41
0.000000
 42
0.000000
  0
SEQEND
  0
POLYLINE
  8
PIN_TOP
 66
1
 70
1
 40
0.000000
 41
0.000000
 39
0.000000
  0
VERTEX
  8
PIN_TOP
 10
99.407104
 20
30.525022
 40
0.000000
 41
0.000000
 42
0.000000
  0
VERTEX
  8
PIN_TOP
 10
99.407104
 20
29.475011
 40
0.000000
 41
0.000000
 42
0.000000
  0
VERTEX
  8
PIN_TOP
 10
98.357093
 20
29.475011
 40
0.000000
 41
0.000000
 42
0.000000
  0
VERTEX
  8
PIN_TOP
 10
98.357093
 20
30.525022
 40
0.000000
 41
0.000000
 42
0.000000
  0
SEQEND
  0
POLYLINE
  8
PG_SILKSCREEN_TOP
 66
1
 70
0
 40
0.000000
 41
0.000000
 39
0.000000
  0
VERTEX
  8
PG_SILKSCREEN_TOP
 10
98.681997
 20
28.700019
 40
0.100101
 41
0.100101
 42
0.000000
  0
VERTEX
  8
PG_SILKSCREEN_TOP
 10
98.681997
 20
31.300014
 40
0.100101
 41
0.100101
 42
0.000000
  0
VERTEX
  8
PG_SILKSCREEN_TOP
 10
96.082002
 20
31.300014
 40
0.100101
 41
0.100101
 42
0.000000
  0
VERTEX
  8
PG_SILKSCREEN_TOP
 10
96.082002
 20
28.700019
 40
0.100101
 41
0.100101
 42
0.000000
  0
VERTEX
  8
PG_SILKSCREEN_TOP
 10
98.681997
 20
28.700019
 40
0.100101
 41
0.100101
 42
0.000000
  0
SEQEND
  0
POLYLINE
  8
PG_SILKSCREEN_TOP
 66
1
 70
0
 40
0.000000
 41
0.000000
 39
0.000000
  0
VERTEX
  8
PG_SILKSCREEN_TOP
 10
98.281896
 20
30.000016
 40
0.100101
 41
0.100101
 42
1.000000
  0
VERTEX
  8
PG_SILKSCREEN_TOP
 10
96.482103
 20
30.000016
 40
0.100101
 41
0.100101
 42
1.000000
  0
VERTEX
  8
PG_SILKSCREEN_TOP
 10
98.281896
 20
30.000016
 40
0.100101
 41
0.100101
 42
0.000000
  0
SEQEND
  0
POLYLINE
  8
PG_SILKSCREEN_TOP
 66
1
 70
0
 40
0.000000
 41
0.000000
 39
0.000000
  0
VERTEX
  8
PG_SILKSCREEN_TOP
 10
98.081998
 20
30.000016
 40
0.100101
 41
0.100101
 42
1.000000
  0
VERTEX
  8
PG_SILKSCREEN_TOP
 10
96.682001
 20
30.000016
 40
0.100101
 41
0.100101
 42
1.000000
  0
VERTEX
  8
PG_SILKSCREEN_TOP
 10
98.081998
 20
30.000016
 40
0.100101
 41
0.100101
 42
0.000000
  0
SEQEND
  0
POLYLINE
  8
PG_SILKSCREEN_TOP
 66
1
 70
0
 40
0.000000
 41
0.000000
 39
0.000000
  0
VERTEX
  8
PG_SILKSCREEN_TOP
 10
97.581898
 20
30.000016
 40
0.100101
 41
0.100101
 42
1.000000
  0
VERTEX
  8
PG_SILKSCREEN_TOP
 10
97.182102
 20
30.000016
 40
0.100101
 41
0.100101
 42
1.000000
  0
VERTEX
  8
PG_SILKSCREEN_TOP
 10
97.581898
 20
30.000016
 40
0.100101
 41
0.100101
 42
0.000000
  0
SEQEND
  0
POLYLINE
  8
PG_SILKSCREEN_TOP
 66
1
 70
0
 40
0.000000
 41
0.000000
 39
0.000000
  0
VERTEX
  8
PG_SILKSCREEN_TOP
 10
97.179105
 20
29.389908
 40
0.100101
 41
0.100101
 42
0.000000
  0
VERTEX
  8
PG_SILKSCREEN_TOP
 10
97.182102
 20
30.000016
 40
0.100101
 41
0.100101
 42
0.000000
  0
VERTEX
  8
PG_SILKSCREEN_TOP
 10
97.182102
 20
30.610124
 40
0.100101
 41
0.100101
 42
0.000000
  0
SEQEND
  0
POLYLINE
  8
PG_SILKSCREEN_TOP
 66
1
 70
0
 40
0.000000
 41
0.000000
 39
0.000000
  0
VERTEX
  8
PG_SILKSCREEN_TOP
 10
97.581898
 20
29.389908
 40
0.100101
 41
0.100101
 42
0.000000
  0
VERTEX
  8
PG_SILKSCREEN_TOP
 10
97.581898
 20
30.610124
 40
0.100101
 41
0.100101
 42
0.000000
  0
SEQEND
  0
POLYLINE
  8
PIN_TOP
 66
1
 70
1
 40
0.000000
 41
0.000000
 39
0.000000
  0
VERTEX
  8
PIN_TOP
 10
64.348093
 20
56.649747
 40
0.000000
 41
0.000000
 42
0.000000
  0
VERTEX
  8
PIN_TOP
 10
65.398104
 20
56.649747
 40
0.000000
 41
0.000000
 42
0.000000
  0
VERTEX
  8
PIN_TOP
 10
65.398104
 20
54.449853
 40
0.000000
 41
0.000000
 42
0.000000
  0
VERTEX
  8
PIN_TOP
 10
64.348093
 20
54.449853
 40
0.000000
 41
0.000000
 42
0.000000
  0
SEQEND
  0
POLYLINE
  8
PIN_TOP
 66
1
 70
1
 40
0.000000
 41
0.000000
 39
0.000000
  0
VERTEX
  8
PIN_TOP
 10
61.347896
 20
56.649747
 40
0.000000
 41
0.000000
 42
0.000000
  0
VERTEX
  8
PIN_TOP
 10
62.397907
 20
56.649747
 40
0.000000
 41
0.000000
 42
0.000000
  0
VERTEX
  8
PIN_TOP
 10
62.397907
 20
54.449853
 40
0.000000
 41
0.000000
 42
0.000000
  0
VERTEX
  8
PIN_TOP
 10
61.347896
 20
54.449853
 40
0.000000
 41
0.000000
 42
0.000000
  0
SEQEND
  0
POLYLINE
  8
PIN_TOP
 66
1
 70
1
 40
0.000000
 41
0.000000
 39
0.000000
  0
VERTEX
  8
PIN_TOP
 10
62.847995
 20
54.574707
 40
0.000000
 41
0.000000
 42
0.000000
  0
VERTEX
  8
PIN_TOP
 10
63.898005
 20
54.574707
 40
0.000000
 41
0.000000
 42
0.000000
  0
VERTEX
  8
PIN_TOP
 10
63.898005
 20
53.524696
 40
0.000000
 41
0.000000
 42
0.000000
  0
VERTEX
  8
PIN_TOP
 10
62.847995
 20
53.524696
 40
0.000000
 41
0.000000
 42
0.000000
  0
SEQEND
  0
POLYLINE
  8
PIN_TOP
 66
1
 70
1
 40
0.000000
 41
0.000000
 39
0.000000
  0
VERTEX
  8
PIN_TOP
 10
62.847995
 20
57.574904
 40
0.000000
 41
0.000000
 42
0.000000
  0
VERTEX
  8
PIN_TOP
 10
63.898005
 20
57.574904
 40
0.000000
 41
0.000000
 42
0.000000
  0
VERTEX
  8
PIN_TOP
 10
63.898005
 20
56.524893
 40
0.000000
 41
0.000000
 42
0.000000
  0
VERTEX
  8
PIN_TOP
 10
62.847995
 20
56.524893
 40
0.000000
 41
0.000000
 42
0.000000
  0
SEQEND
  0
POLYLINE
  8
PG_SILKSCREEN_TOP
 66
1
 70
0
 40
0.000000
 41
0.000000
 39
0.000000
  0
VERTEX
  8
PG_SILKSCREEN_TOP
 10
64.672997
 20
56.849797
 40
0.100101
 41
0.100101
 42
0.000000
  0
VERTEX
  8
PG_SILKSCREEN_TOP
 10
62.073003
 20
56.849797
 40
0.100101
 41
0.100101
 42
0.000000
  0
VERTEX
  8
PG_SILKSCREEN_TOP
 10
62.073003
 20
54.249803
 40
0.100101
 41
0.100101
 42
0.000000
  0
VERTEX
  8
PG_SILKSCREEN_TOP
 10
64.672997
 20
54.249803
 40
0.100101
 41
0.100101
 42
0.000000
  0
VERTEX
  8
PG_SILKSCREEN_TOP
 10
64.672997
 20
56.849797
 40
0.100101
 41
0.100101
 42
0.000000
  0
SEQEND
  0
POLYLINE
  8
PG_SILKSCREEN_TOP
 66
1
 70
0
 40
0.000000
 41
0.000000
 39
0.000000
  0
VERTEX
  8
PG_SILKSCREEN_TOP
 10
64.272897
 20
55.549800
 40
0.100101
 41
0.100101
 42
1.000000
  0
VERTEX
  8
PG_SILKSCREEN_TOP
 10
62.473103
 20
55.549800
 40
0.100101
 41
0.100101
 42
1.000000
  0
VERTEX
  8
PG_SILKSCREEN_TOP
 10
64.272897
 20
55.549800
 40
0.100101
 41
0.100101
 42
0.000000
  0
SEQEND
  0
POLYLINE
  8
PG_SILKSCREEN_TOP
 66
1
 70
0
 40
0.000000
 41
0.000000
 39
0.000000
  0
VERTEX
  8
PG_SILKSCREEN_TOP
 10
64.072999
 20
55.549800
 40
0.100101
 41
0.100101
 42
1.000000
  0
VERTEX
  8
PG_SILKSCREEN_TOP
 10
62.673001
 20
55.549800
 40
0.100101
 41
0.100101
 42
1.000000
  0
VERTEX
  8
PG_SILKSCREEN_TOP
 10
64.072999
 20
55.549800
 40
0.100101
 41
0.100101
 42
0.000000
  0
SEQEND
  0
POLYLINE
  8
PG_SILKSCREEN_TOP
 66
1
 70
0
 40
0.000000
 41
0.000000
 39
0.000000
  0
VERTEX
  8
PG_SILKSCREEN_TOP
 10
63.572898
 20
55.549800
 40
0.100101
 41
0.100101
 42
1.000000
  0
VERTEX
  8
PG_SILKSCREEN_TOP
 10
63.173102
 20
55.549800
 40
0.100101
 41
0.100101
 42
1.000000
  0
VERTEX
  8
PG_SILKSCREEN_TOP
 10
63.572898
 20
55.549800
 40
0.100101
 41
0.100101
 42
0.000000
  0
SEQEND
  0
POLYLINE
  8
PG_SILKSCREEN_TOP
 66
1
 70
0
 40
0.000000
 41
0.000000
 39
0.000000
  0
VERTEX
  8
PG_SILKSCREEN_TOP
 10
63.983108
 20
55.346905
 40
0.100101
 41
0.100101
 42
0.000000
  0
VERTEX
  8
PG_SILKSCREEN_TOP
 10
63.373000
 20
55.349902
 40
0.100101
 41
0.100101
 42
0.000000
  0
VERTEX
  8
PG_SILKSCREEN_TOP
 10
62.762892
 20
55.349902
 40
0.100101
 41
0.100101
 42
0.000000
  0
SEQEND
  0
POLYLINE
  8
PG_SILKSCREEN_TOP
 66
1
 70
0
 40
0.000000
 41
0.000000
 39
0.000000
  0
VERTEX
  8
PG_SILKSCREEN_TOP
 10
63.983108
 20
55.749698
 40
0.100101
 41
0.100101
 42
0.000000
  0
VERTEX
  8
PG_SILKSCREEN_TOP
 10
62.762892
 20
55.749698
 40
0.100101
 41
0.100101
 42
0.000000
  0
SEQEND
  0
CIRCLE
  8
PIN_TOP
 10
1.848739
 20
36.769040
 40
0.499999
  0
CIRCLE
  8
PIN_TOP
 10
1.848739
 20
33.766760
 40
0.499999
  0
POLYLINE
  8
PIN_TOP
 66
1
 70
1
 40
0.000000
 41
0.000000
 39
0.000000
  0
VERTEX
  8
PIN_TOP
 10
95.000013
 20
34.850019
 40
0.000000
 41
0.000000
 42
0.000000
  0
VERTEX
  8
PIN_TOP
 10
95.000013
 20
36.049915
 40
0.000000
 41
0.000000
 42
0.000000
  0
VERTEX
  8
PIN_TOP
 10
100.000003
 20
36.049915
 40
0.000000
 41
0.000000
 42
0.000000
  0
VERTEX
  8
PIN_TOP
 10
100.000003
 20
34.850019
 40
0.000000
 41
0.000000
 42
0.000000
  0
SEQEND
  0
POLYLINE
  8
PIN_TOP
 66
1
 70
1
 40
0.000000
 41
0.000000
 39
0.000000
  0
VERTEX
  8
PIN_TOP
 10
95.000013
 20
39.950085
 40
0.000000
 41
0.000000
 42
0.000000
  0
VERTEX
  8
PIN_TOP
 10
95.000013
 20
41.149981
 40
0.000000
 41
0.000000
 42
0.000000
  0
VERTEX
  8
PIN_TOP
 10
100.000003
 20
41.149981
 40
0.000000
 41
0.000000
 42
0.000000
  0
VERTEX
  8
PIN_TOP
 10
100.000003
 20
39.950085
 40
0.000000
 41
0.000000
 42
0.000000
  0
SEQEND
  0
POLYLINE
  8
PIN_TOP
 66
1
 70
1
 40
0.000000
 41
0.000000
 39
0.000000
  0
VERTEX
  8
PIN_TOP
 10
95.000013
 20
37.249811
 40
0.000000
 41
0.000000
 42
0.000000
  0
VERTEX
  8
PIN_TOP
 10
95.000013
 20
38.749935
 40
0.000000
 41
0.000000
 42
0.000000
  0
VERTEX
  8
PIN_TOP
 10
100.000003
 20
38.749935
 40
0.000000
 41
0.000000
 42
0.000000
  0
VERTEX
  8
PIN_TOP
 10
100.000003
 20
37.249811
 40
0.000000
 41
0.000000
 42
0.000000
  0
SEQEND
  0
POLYLINE
  8
PG_SILKSCREEN_TOP
 66
1
 70
0
 40
0.000000
 41
0.000000
 39
0.000000
  0
VERTEX
  8
PG_SILKSCREEN_TOP
 10
101.818008
 20
34.999879
 40
0.254000
 41
0.254000
 42
0.000000
  0
VERTEX
  8
PG_SILKSCREEN_TOP
 10
101.818008
 20
40.999867
 40
0.254000
 41
0.254000
 42
0.000000
  0
SEQEND
  0
POLYLINE
  8
PG_SILKSCREEN_TOP
 66
1
 70
0
 40
0.000000
 41
0.000000
 39
0.000000
  0
VERTEX
  8
PG_SILKSCREEN_TOP
 10
100.294008
 20
34.951873
 40
0.254000
 41
0.254000
 42
0.000000
  0
VERTEX
  8
PG_SILKSCREEN_TOP
 10
101.818008
 20
34.951873
 40
0.254000
 41
0.254000
 42
0.000000
  0
SEQEND
  0
POLYLINE
  8
PG_SILKSCREEN_TOP
 66
1
 70
0
 40
0.000000
 41
0.000000
 39
0.000000
  0
VERTEX
  8
PG_SILKSCREEN_TOP
 10
100.294008
 20
34.951873
 40
0.254000
 41
0.254000
 42
0.000000
  0
VERTEX
  8
PG_SILKSCREEN_TOP
 10
100.294008
 20
40.999867
 40
0.254000
 41
0.254000
 42
0.000000
  0
SEQEND
  0
POLYLINE
  8
PG_SILKSCREEN_TOP
 66
1
 70
0
 40
0.000000
 41
0.000000
 39
0.000000
  0
VERTEX
  8
PG_SILKSCREEN_TOP
 10
100.294008
 20
40.999867
 40
0.254000
 41
0.254000
 42
0.000000
  0
VERTEX
  8
PG_SILKSCREEN_TOP
 10
101.818008
 20
40.999867
 40
0.254000
 41
0.254000
 42
0.000000
  0
SEQEND
  0
POLYLINE
  8
PG_SILKSCREEN_TOP
 66
1
 70
0
 40
0.000000
 41
0.000000
 39
0.000000
  0
VERTEX
  8
PG_SILKSCREEN_TOP
 10
101.818008
 20
40.689225
 40
0.254000
 41
0.254000
 42
0.000000
  0
VERTEX
  8
PG_SILKSCREEN_TOP
 10
113.318112
 20
40.689225
 40
0.254000
 41
0.254000
 42
0.000000
  0
SEQEND
  0
POLYLINE
  8
PG_SILKSCREEN_TOP
 66
1
 70
0
 40
0.000000
 41
0.000000
 39
0.000000
  0
VERTEX
  8
PG_SILKSCREEN_TOP
 10
101.818008
 20
35.332873
 40
0.254000
 41
0.254000
 42
0.000000
  0
VERTEX
  8
PG_SILKSCREEN_TOP
 10
113.318112
 20
35.332873
 40
0.254000
 41
0.254000
 42
0.000000
  0
SEQEND
  0
POLYLINE
  8
PG_SILKSCREEN_TOP
 66
1
 70
0
 40
0.000000
 41
0.000000
 39
0.000000
  0
VERTEX
  8
PG_SILKSCREEN_TOP
 10
113.318112
 20
35.332873
 40
0.254000
 41
0.254000
 42
0.000000
  0
VERTEX
  8
PG_SILKSCREEN_TOP
 10
113.318112
 20
40.689225
 40
0.254000
 41
0.254000
 42
0.000000
  0
SEQEND
  0
POLYLINE
  8
PG_SILKSCREEN_TOP
 66
1
 70
0
 40
0.000000
 41
0.000000
 39
0.000000
  0
VERTEX
  8
PG_SILKSCREEN_TOP
 10
103.002664
 20
35.332873
 40
0.254000
 41
0.254000
 42
0.000000
  0
VERTEX
  8
PG_SILKSCREEN_TOP
 10
103.002664
 20
40.689225
 40
0.254000
 41
0.254000
 42
0.000000
  0
SEQEND
  0
POLYLINE
  8
PG_SILKSCREEN_TOP
 66
1
 70
0
 40
0.000000
 41
0.000000
 39
0.000000
  0
VERTEX
  8
PG_SILKSCREEN_TOP
 10
103.020952
 20
35.332873
 40
0.254000
 41
0.254000
 42
0.000000
  0
VERTEX
  8
PG_SILKSCREEN_TOP
 10
103.927986
 20
40.689225
 40
0.254000
 41
0.254000
 42
0.000000
  0
SEQEND
  0
POLYLINE
  8
PG_SILKSCREEN_TOP
 66
1
 70
0
 40
0.000000
 41
0.000000
 39
0.000000
  0
VERTEX
  8
PG_SILKSCREEN_TOP
 10
103.927986
 20
35.332873
 40
0.254000
 41
0.254000
 42
0.000000
  0
VERTEX
  8
PG_SILKSCREEN_TOP
 10
103.927986
 20
40.689225
 40
0.254000
 41
0.254000
 42
0.000000
  0
SEQEND
  0
POLYLINE
  8
PG_SILKSCREEN_TOP
 66
1
 70
0
 40
0.000000
 41
0.000000
 39
0.000000
  0
VERTEX
  8
PG_SILKSCREEN_TOP
 10
103.927986
 20
35.332873
 40
0.254000
 41
0.254000
 42
0.000000
  0
VERTEX
  8
PG_SILKSCREEN_TOP
 10
104.835274
 20
40.689225
 40
0.254000
 41
0.254000
 42
0.000000
  0
SEQEND
  0
POLYLINE
  8
PG_SILKSCREEN_TOP
 66
1
 70
0
 40
0.000000
 41
0.000000
 39
0.000000
  0
VERTEX
  8
PG_SILKSCREEN_TOP
 10
104.835274
 20
35.332873
 40
0.254000
 41
0.254000
 42
0.000000
  0
VERTEX
  8
PG_SILKSCREEN_TOP
 10
104.835274
 20
40.689225
 40
0.254000
 41
0.254000
 42
0.000000
  0
SEQEND
  0
POLYLINE
  8
PG_SILKSCREEN_TOP
 66
1
 70
0
 40
0.000000
 41
0.000000
 39
0.000000
  0
VERTEX
  8
PG_SILKSCREEN_TOP
 10
104.835274
 20
35.332873
 40
0.254000
 41
0.254000
 42
0.000000
  0
VERTEX
  8
PG_SILKSCREEN_TOP
 10
105.760596
 20
40.689225
 40
0.254000
 41
0.254000
 42
0.000000
  0
SEQEND
  0
POLYLINE
  8
PG_SILKSCREEN_TOP
 66
1
 70
0
 40
0.000000
 41
0.000000
 39
0.000000
  0
VERTEX
  8
PG_SILKSCREEN_TOP
 10
105.760596
 20
35.332873
 40
0.254000
 41
0.254000
 42
0.000000
  0
VERTEX
  8
PG_SILKSCREEN_TOP
 10
105.760596
 20
40.689225
 40
0.254000
 41
0.254000
 42
0.000000
  0
SEQEND
  0
POLYLINE
  8
PG_SILKSCREEN_TOP
 66
1
 70
0
 40
0.000000
 41
0.000000
 39
0.000000
  0
VERTEX
  8
PG_SILKSCREEN_TOP
 10
105.760596
 20
35.332873
 40
0.254000
 41
0.254000
 42
0.000000
  0
VERTEX
  8
PG_SILKSCREEN_TOP
 10
106.685664
 20
40.689225
 40
0.254000
 41
0.254000
 42
0.000000
  0
SEQEND
  0
POLYLINE
  8
PG_SILKSCREEN_TOP
 66
1
 70
0
 40
0.000000
 41
0.000000
 39
0.000000
  0
VERTEX
  8
PG_SILKSCREEN_TOP
 10
106.685664
 20
35.332873
 40
0.254000
 41
0.254000
 42
0.000000
  0
VERTEX
  8
PG_SILKSCREEN_TOP
 10
106.685664
 20
40.689225
 40
0.254000
 41
0.254000
 42
0.000000
  0
SEQEND
  0
POLYLINE
  8
PG_SILKSCREEN_TOP
 66
1
 70
0
 40
0.000000
 41
0.000000
 39
0.000000
  0
VERTEX
  8
PG_SILKSCREEN_TOP
 10
106.685664
 20
35.332873
 40
0.254000
 41
0.254000
 42
0.000000
  0
VERTEX
  8
PG_SILKSCREEN_TOP
 10
107.574664
 20
40.689225
 40
0.254000
 41
0.254000
 42
0.000000
  0
SEQEND
  0
POLYLINE
  8
PG_SILKSCREEN_TOP
 66
1
 70
0
 40
0.000000
 41
0.000000
 39
0.000000
  0
VERTEX
  8
PG_SILKSCREEN_TOP
 10
107.574664
 20
35.332873
 40
0.254000
 41
0.254000
 42
0.000000
  0
VERTEX
  8
PG_SILKSCREEN_TOP
 10
107.574664
 20
40.689225
 40
0.254000
 41
0.254000
 42
0.000000
  0
SEQEND
  0
POLYLINE
  8
PG_SILKSCREEN_TOP
 66
1
 70
0
 40
0.000000
 41
0.000000
 39
0.000000
  0
VERTEX
  8
PG_SILKSCREEN_TOP
 10
107.574664
 20
35.332873
 40
0.254000
 41
0.254000
 42
0.000000
  0
VERTEX
  8
PG_SILKSCREEN_TOP
 10
108.445630
 20
40.689225
 40
0.254000
 41
0.254000
 42
0.000000
  0
SEQEND
  0
POLYLINE
  8
PG_SILKSCREEN_TOP
 66
1
 70
0
 40
0.000000
 41
0.000000
 39
0.000000
  0
VERTEX
  8
PG_SILKSCREEN_TOP
 10
108.445630
 20
35.332873
 40
0.254000
 41
0.254000
 42
0.000000
  0
VERTEX
  8
PG_SILKSCREEN_TOP
 10
108.445630
 20
40.689225
 40
0.254000
 41
0.254000
 42
0.000000
  0
SEQEND
  0
POLYLINE
  8
PG_SILKSCREEN_TOP
 66
1
 70
0
 40
0.000000
 41
0.000000
 39
0.000000
  0
VERTEX
  8
PG_SILKSCREEN_TOP
 10
108.445630
 20
35.332873
 40
0.254000
 41
0.254000
 42
0.000000
  0
VERTEX
  8
PG_SILKSCREEN_TOP
 10
109.280274
 20
40.689225
 40
0.254000
 41
0.254000
 42
0.000000
  0
SEQEND
  0
POLYLINE
  8
PG_SILKSCREEN_TOP
 66
1
 70
0
 40
0.000000
 41
0.000000
 39
0.000000
  0
VERTEX
  8
PG_SILKSCREEN_TOP
 10
109.280274
 20
35.332873
 40
0.254000
 41
0.254000
 42
0.000000
  0
VERTEX
  8
PG_SILKSCREEN_TOP
 10
109.280274
 20
40.689225
 40
0.254000
 41
0.254000
 42
0.000000
  0
SEQEND
  0
POLYLINE
  8
PG_SILKSCREEN_TOP
 66
1
 70
0
 40
0.000000
 41
0.000000
 39
0.000000
  0
VERTEX
  8
PG_SILKSCREEN_TOP
 10
109.280274
 20
35.332873
 40
0.254000
 41
0.254000
 42
0.000000
  0
VERTEX
  8
PG_SILKSCREEN_TOP
 10
110.096630
 20
40.689225
 40
0.254000
 41
0.254000
 42
0.000000
  0
SEQEND
  0
POLYLINE
  8
PG_SILKSCREEN_TOP
 66
1
 70
0
 40
0.000000
 41
0.000000
 39
0.000000
  0
VERTEX
  8
PG_SILKSCREEN_TOP
 10
110.096630
 20
35.332873
 40
0.254000
 41
0.254000
 42
0.000000
  0
VERTEX
  8
PG_SILKSCREEN_TOP
 10
110.096630
 20
40.689225
 40
0.254000
 41
0.254000
 42
0.000000
  0
SEQEND
  0
POLYLINE
  8
PG_SILKSCREEN_TOP
 66
1
 70
0
 40
0.000000
 41
0.000000
 39
0.000000
  0
VERTEX
  8
PG_SILKSCREEN_TOP
 10
110.096630
 20
35.332873
 40
0.254000
 41
0.254000
 42
0.000000
  0
VERTEX
  8
PG_SILKSCREEN_TOP
 10
110.949308
 20
40.689225
 40
0.254000
 41
0.254000
 42
0.000000
  0
SEQEND
  0
POLYLINE
  8
PG_SILKSCREEN_TOP
 66
1
 70
0
 40
0.000000
 41
0.000000
 39
0.000000
  0
VERTEX
  8
PG_SILKSCREEN_TOP
 10
110.949308
 20
35.332873
 40
0.254000
 41
0.254000
 42
0.000000
  0
VERTEX
  8
PG_SILKSCREEN_TOP
 10
110.949308
 20
40.689225
 40
0.254000
 41
0.254000
 42
0.000000
  0
SEQEND
  0
POLYLINE
  8
PG_SILKSCREEN_TOP
 66
1
 70
0
 40
0.000000
 41
0.000000
 39
0.000000
  0
VERTEX
  8
PG_SILKSCREEN_TOP
 10
110.949308
 20
35.332873
 40
0.254000
 41
0.254000
 42
0.000000
  0
VERTEX
  8
PG_SILKSCREEN_TOP
 10
111.765664
 20
40.689225
 40
0.254000
 41
0.254000
 42
0.000000
  0
SEQEND
  0
POLYLINE
  8
PG_SILKSCREEN_TOP
 66
1
 70
0
 40
0.000000
 41
0.000000
 39
0.000000
  0
VERTEX
  8
PG_SILKSCREEN_TOP
 10
111.765664
 20
35.332873
 40
0.254000
 41
0.254000
 42
0.000000
  0
VERTEX
  8
PG_SILKSCREEN_TOP
 10
111.765664
 20
40.689225
 40
0.254000
 41
0.254000
 42
0.000000
  0
SEQEND
  0
POLYLINE
  8
PIN_TOP
 66
1
 70
1
 40
0.000000
 41
0.000000
 39
0.000000
  0
VERTEX
  8
PIN_TOP
 10
95.000013
 20
18.850026
 40
0.000000
 41
0.000000
 42
0.000000
  0
VERTEX
  8
PIN_TOP
 10
95.000013
 20
20.049922
 40
0.000000
 41
0.000000
 42
0.000000
  0
VERTEX
  8
PIN_TOP
 10
100.000003
 20
20.049922
 40
0.000000
 41
0.000000
 42
0.000000
  0
VERTEX
  8
PIN_TOP
 10
100.000003
 20
18.850026
 40
0.000000
 41
0.000000
 42
0.000000
  0
SEQEND
  0
POLYLINE
  8
PIN_TOP
 66
1
 70
1
 40
0.000000
 41
0.000000
 39
0.000000
  0
VERTEX
  8
PIN_TOP
 10
95.000013
 20
23.950092
 40
0.000000
 41
0.000000
 42
0.000000
  0
VERTEX
  8
PIN_TOP
 10
95.000013
 20
25.149988
 40
0.000000
 41
0.000000
 42
0.000000
  0
VERTEX
  8
PIN_TOP
 10
100.000003
 20
25.149988
 40
0.000000
 41
0.000000
 42
0.000000
  0
VERTEX
  8
PIN_TOP
 10
100.000003
 20
23.950092
 40
0.000000
 41
0.000000
 42
0.000000
  0
SEQEND
  0
POLYLINE
  8
PIN_TOP
 66
1
 70
1
 40
0.000000
 41
0.000000
 39
0.000000
  0
VERTEX
  8
PIN_TOP
 10
95.000013
 20
21.249818
 40
0.000000
 41
0.000000
 42
0.000000
  0
VERTEX
  8
PIN_TOP
 10
95.000013
 20
22.749942
 40
0.000000
 41
0.000000
 42
0.000000
  0
VERTEX
  8
PIN_TOP
 10
100.000003
 20
22.749942
 40
0.000000
 41
0.000000
 42
0.000000
  0
VERTEX
  8
PIN_TOP
 10
100.000003
 20
21.249818
 40
0.000000
 41
0.000000
 42
0.000000
  0
SEQEND
  0
POLYLINE
  8
PG_SILKSCREEN_TOP
 66
1
 70
0
 40
0.000000
 41
0.000000
 39
0.000000
  0
VERTEX
  8
PG_SILKSCREEN_TOP
 10
101.818008
 20
18.999886
 40
0.254000
 41
0.254000
 42
0.000000
  0
VERTEX
  8
PG_SILKSCREEN_TOP
 10
101.818008
 20
24.999874
 40
0.254000
 41
0.254000
 42
0.000000
  0
SEQEND
  0
POLYLINE
  8
PG_SILKSCREEN_TOP
 66
1
 70
0
 40
0.000000
 41
0.000000
 39
0.000000
  0
VERTEX
  8
PG_SILKSCREEN_TOP
 10
100.294008
 20
18.951880
 40
0.254000
 41
0.254000
 42
0.000000
  0
VERTEX
  8
PG_SILKSCREEN_TOP
 10
101.818008
 20
18.951880
 40
0.254000
 41
0.254000
 42
0.000000
  0
SEQEND
  0
POLYLINE
  8
PG_SILKSCREEN_TOP
 66
1
 70
0
 40
0.000000
 41
0.000000
 39
0.000000
  0
VERTEX
  8
PG_SILKSCREEN_TOP
 10
100.294008
 20
18.951880
 40
0.254000
 41
0.254000
 42
0.000000
  0
VERTEX
  8
PG_SILKSCREEN_TOP
 10
100.294008
 20
24.999874
 40
0.254000
 41
0.254000
 42
0.000000
  0
SEQEND
  0
POLYLINE
  8
PG_SILKSCREEN_TOP
 66
1
 70
0
 40
0.000000
 41
0.000000
 39
0.000000
  0
VERTEX
  8
PG_SILKSCREEN_TOP
 10
100.294008
 20
24.999874
 40
0.254000
 41
0.254000
 42
0.000000
  0
VERTEX
  8
PG_SILKSCREEN_TOP
 10
101.818008
 20
24.999874
 40
0.254000
 41
0.254000
 42
0.000000
  0
SEQEND
  0
POLYLINE
  8
PG_SILKSCREEN_TOP
 66
1
 70
0
 40
0.000000
 41
0.000000
 39
0.000000
  0
VERTEX
  8
PG_SILKSCREEN_TOP
 10
101.818008
 20
24.689232
 40
0.254000
 41
0.254000
 42
0.000000
  0
VERTEX
  8
PG_SILKSCREEN_TOP
 10
113.318112
 20
24.689232
 40
0.254000
 41
0.254000
 42
0.000000
  0
SEQEND
  0
POLYLINE
  8
PG_SILKSCREEN_TOP
 66
1
 70
0
 40
0.000000
 41
0.000000
 39
0.000000
  0
VERTEX
  8
PG_SILKSCREEN_TOP
 10
101.818008
 20
19.332880
 40
0.254000
 41
0.254000
 42
0.000000
  0
VERTEX
  8
PG_SILKSCREEN_TOP
 10
113.318112
 20
19.332880
 40
0.254000
 41
0.254000
 42
0.000000
  0
SEQEND
  0
POLYLINE
  8
PG_SILKSCREEN_TOP
 66
1
 70
0
 40
0.000000
 41
0.000000
 39
0.000000
  0
VERTEX
  8
PG_SILKSCREEN_TOP
 10
113.318112
 20
19.332880
 40
0.254000
 41
0.254000
 42
0.000000
  0
VERTEX
  8
PG_SILKSCREEN_TOP
 10
113.318112
 20
24.689232
 40
0.254000
 41
0.254000
 42
0.000000
  0
SEQEND
  0
POLYLINE
  8
PG_SILKSCREEN_TOP
 66
1
 70
0
 40
0.000000
 41
0.000000
 39
0.000000
  0
VERTEX
  8
PG_SILKSCREEN_TOP
 10
103.002664
 20
19.332880
 40
0.254000
 41
0.254000
 42
0.000000
  0
VERTEX
  8
PG_SILKSCREEN_TOP
 10
103.002664
 20
24.689232
 40
0.254000
 41
0.254000
 42
0.000000
  0
SEQEND
  0
POLYLINE
  8
PG_SILKSCREEN_TOP
 66
1
 70
0
 40
0.000000
 41
0.000000
 39
0.000000
  0
VERTEX
  8
PG_SILKSCREEN_TOP
 10
103.020952
 20
19.332880
 40
0.254000
 41
0.254000
 42
0.000000
  0
VERTEX
  8
PG_SILKSCREEN_TOP
 10
103.927986
 20
24.689232
 40
0.254000
 41
0.254000
 42
0.000000
  0
SEQEND
  0
POLYLINE
  8
PG_SILKSCREEN_TOP
 66
1
 70
0
 40
0.000000
 41
0.000000
 39
0.000000
  0
VERTEX
  8
PG_SILKSCREEN_TOP
 10
103.927986
 20
19.332880
 40
0.254000
 41
0.254000
 42
0.000000
  0
VERTEX
  8
PG_SILKSCREEN_TOP
 10
103.927986
 20
24.689232
 40
0.254000
 41
0.254000
 42
0.000000
  0
SEQEND
  0
POLYLINE
  8
PG_SILKSCREEN_TOP
 66
1
 70
0
 40
0.000000
 41
0.000000
 39
0.000000
  0
VERTEX
  8
PG_SILKSCREEN_TOP
 10
103.927986
 20
19.332880
 40
0.254000
 41
0.254000
 42
0.000000
  0
VERTEX
  8
PG_SILKSCREEN_TOP
 10
104.835274
 20
24.689232
 40
0.254000
 41
0.254000
 42
0.000000
  0
SEQEND
  0
POLYLINE
  8
PG_SILKSCREEN_TOP
 66
1
 70
0
 40
0.000000
 41
0.000000
 39
0.000000
  0
VERTEX
  8
PG_SILKSCREEN_TOP
 10
104.835274
 20
19.332880
 40
0.254000
 41
0.254000
 42
0.000000
  0
VERTEX
  8
PG_SILKSCREEN_TOP
 10
104.835274
 20
24.689232
 40
0.254000
 41
0.254000
 42
0.000000
  0
SEQEND
  0
POLYLINE
  8
PG_SILKSCREEN_TOP
 66
1
 70
0
 40
0.000000
 41
0.000000
 39
0.000000
  0
VERTEX
  8
PG_SILKSCREEN_TOP
 10
104.835274
 20
19.332880
 40
0.254000
 41
0.254000
 42
0.000000
  0
VERTEX
  8
PG_SILKSCREEN_TOP
 10
105.760596
 20
24.689232
 40
0.254000
 41
0.254000
 42
0.000000
  0
SEQEND
  0
POLYLINE
  8
PG_SILKSCREEN_TOP
 66
1
 70
0
 40
0.000000
 41
0.000000
 39
0.000000
  0
VERTEX
  8
PG_SILKSCREEN_TOP
 10
105.760596
 20
19.332880
 40
0.254000
 41
0.254000
 42
0.000000
  0
VERTEX
  8
PG_SILKSCREEN_TOP
 10
105.760596
 20
24.689232
 40
0.254000
 41
0.254000
 42
0.000000
  0
SEQEND
  0
POLYLINE
  8
PG_SILKSCREEN_TOP
 66
1
 70
0
 40
0.000000
 41
0.000000
 39
0.000000
  0
VERTEX
  8
PG_SILKSCREEN_TOP
 10
105.760596
 20
19.332880
 40
0.254000
 41
0.254000
 42
0.000000
  0
VERTEX
  8
PG_SILKSCREEN_TOP
 10
106.685664
 20
24.689232
 40
0.254000
 41
0.254000
 42
0.000000
  0
SEQEND
  0
POLYLINE
  8
PG_SILKSCREEN_TOP
 66
1
 70
0
 40
0.000000
 41
0.000000
 39
0.000000
  0
VERTEX
  8
PG_SILKSCREEN_TOP
 10
106.685664
 20
19.332880
 40
0.254000
 41
0.254000
 42
0.000000
  0
VERTEX
  8
PG_SILKSCREEN_TOP
 10
106.685664
 20
24.689232
 40
0.254000
 41
0.254000
 42
0.000000
  0
SEQEND
  0
POLYLINE
  8
PG_SILKSCREEN_TOP
 66
1
 70
0
 40
0.000000
 41
0.000000
 39
0.000000
  0
VERTEX
  8
PG_SILKSCREEN_TOP
 10
106.685664
 20
19.332880
 40
0.254000
 41
0.254000
 42
0.000000
  0
VERTEX
  8
PG_SILKSCREEN_TOP
 10
107.574664
 20
24.689232
 40
0.254000
 41
0.254000
 42
0.000000
  0
SEQEND
  0
POLYLINE
  8
PG_SILKSCREEN_TOP
 66
1
 70
0
 40
0.000000
 41
0.000000
 39
0.000000
  0
VERTEX
  8
PG_SILKSCREEN_TOP
 10
107.574664
 20
19.332880
 40
0.254000
 41
0.254000
 42
0.000000
  0
VERTEX
  8
PG_SILKSCREEN_TOP
 10
107.574664
 20
24.689232
 40
0.254000
 41
0.254000
 42
0.000000
  0
SEQEND
  0
POLYLINE
  8
PG_SILKSCREEN_TOP
 66
1
 70
0
 40
0.000000
 41
0.000000
 39
0.000000
  0
VERTEX
  8
PG_SILKSCREEN_TOP
 10
107.574664
 20
19.332880
 40
0.254000
 41
0.254000
 42
0.000000
  0
VERTEX
  8
PG_SILKSCREEN_TOP
 10
108.445630
 20
24.689232
 40
0.254000
 41
0.254000
 42
0.000000
  0
SEQEND
  0
POLYLINE
  8
PG_SILKSCREEN_TOP
 66
1
 70
0
 40
0.000000
 41
0.000000
 39
0.000000
  0
VERTEX
  8
PG_SILKSCREEN_TOP
 10
108.445630
 20
19.332880
 40
0.254000
 41
0.254000
 42
0.000000
  0
VERTEX
  8
PG_SILKSCREEN_TOP
 10
108.445630
 20
24.689232
 40
0.254000
 41
0.254000
 42
0.000000
  0
SEQEND
  0
POLYLINE
  8
PG_SILKSCREEN_TOP
 66
1
 70
0
 40
0.000000
 41
0.000000
 39
0.000000
  0
VERTEX
  8
PG_SILKSCREEN_TOP
 10
108.445630
 20
19.332880
 40
0.254000
 41
0.254000
 42
0.000000
  0
VERTEX
  8
PG_SILKSCREEN_TOP
 10
109.280274
 20
24.689232
 40
0.254000
 41
0.254000
 42
0.000000
  0
SEQEND
  0
POLYLINE
  8
PG_SILKSCREEN_TOP
 66
1
 70
0
 40
0.000000
 41
0.000000
 39
0.000000
  0
VERTEX
  8
PG_SILKSCREEN_TOP
 10
109.280274
 20
19.332880
 40
0.254000
 41
0.254000
 42
0.000000
  0
VERTEX
  8
PG_SILKSCREEN_TOP
 10
109.280274
 20
24.689232
 40
0.254000
 41
0.254000
 42
0.000000
  0
SEQEND
  0
POLYLINE
  8
PG_SILKSCREEN_TOP
 66
1
 70
0
 40
0.000000
 41
0.000000
 39
0.000000
  0
VERTEX
  8
PG_SILKSCREEN_TOP
 10
109.280274
 20
19.332880
 40
0.254000
 41
0.254000
 42
0.000000
  0
VERTEX
  8
PG_SILKSCREEN_TOP
 10
110.096630
 20
24.689232
 40
0.254000
 41
0.254000
 42
0.000000
  0
SEQEND
  0
POLYLINE
  8
PG_SILKSCREEN_TOP
 66
1
 70
0
 40
0.000000
 41
0.000000
 39
0.000000
  0
VERTEX
  8
PG_SILKSCREEN_TOP
 10
110.096630
 20
19.332880
 40
0.254000
 41
0.254000
 42
0.000000
  0
VERTEX
  8
PG_SILKSCREEN_TOP
 10
110.096630
 20
24.689232
 40
0.254000
 41
0.254000
 42
0.000000
  0
SEQEND
  0
POLYLINE
  8
PG_SILKSCREEN_TOP
 66
1
 70
0
 40
0.000000
 41
0.000000
 39
0.000000
  0
VERTEX
  8
PG_SILKSCREEN_TOP
 10
110.096630
 20
19.332880
 40
0.254000
 41
0.254000
 42
0.000000
  0
VERTEX
  8
PG_SILKSCREEN_TOP
 10
110.949308
 20
24.689232
 40
0.254000
 41
0.254000
 42
0.000000
  0
SEQEND
  0
POLYLINE
  8
PG_SILKSCREEN_TOP
 66
1
 70
0
 40
0.000000
 41
0.000000
 39
0.000000
  0
VERTEX
  8
PG_SILKSCREEN_TOP
 10
110.949308
 20
19.332880
 40
0.254000
 41
0.254000
 42
0.000000
  0
VERTEX
  8
PG_SILKSCREEN_TOP
 10
110.949308
 20
24.689232
 40
0.254000
 41
0.254000
 42
0.000000
  0
SEQEND
  0
POLYLINE
  8
PG_SILKSCREEN_TOP
 66
1
 70
0
 40
0.000000
 41
0.000000
 39
0.000000
  0
VERTEX
  8
PG_SILKSCREEN_TOP
 10
110.949308
 20
19.332880
 40
0.254000
 41
0.254000
 42
0.000000
  0
VERTEX
  8
PG_SILKSCREEN_TOP
 10
111.765664
 20
24.689232
 40
0.254000
 41
0.254000
 42
0.000000
  0
SEQEND
  0
POLYLINE
  8
PG_SILKSCREEN_TOP
 66
1
 70
0
 40
0.000000
 41
0.000000
 39
0.000000
  0
VERTEX
  8
PG_SILKSCREEN_TOP
 10
111.765664
 20
19.332880
 40
0.254000
 41
0.254000
 42
0.000000
  0
VERTEX
  8
PG_SILKSCREEN_TOP
 10
111.765664
 20
24.689232
 40
0.254000
 41
0.254000
 42
0.000000
  0
SEQEND
  0
POLYLINE
  8
PIN_TOP
 66
1
 70
1
 40
0.000000
 41
0.000000
 39
0.000000
  0
VERTEX
  8
PIN_TOP
 10
95.000013
 20
50.850013
 40
0.000000
 41
0.000000
 42
0.000000
  0
VERTEX
  8
PIN_TOP
 10
95.000013
 20
52.049909
 40
0.000000
 41
0.000000
 42
0.000000
  0
VERTEX
  8
PIN_TOP
 10
100.000003
 20
52.049909
 40
0.000000
 41
0.000000
 42
0.000000
  0
VERTEX
  8
PIN_TOP
 10
100.000003
 20
50.850013
 40
0.000000
 41
0.000000
 42
0.000000
  0
SEQEND
  0
POLYLINE
  8
PIN_TOP
 66
1
 70
1
 40
0.000000
 41
0.000000
 39
0.000000
  0
VERTEX
  8
PIN_TOP
 10
95.000013
 20
55.950079
 40
0.000000
 41
0.000000
 42
0.000000
  0
VERTEX
  8
PIN_TOP
 10
95.000013
 20
57.149975
 40
0.000000
 41
0.000000
 42
0.000000
  0
VERTEX
  8
PIN_TOP
 10
100.000003
 20
57.149975
 40
0.000000
 41
0.000000
 42
0.000000
  0
VERTEX
  8
PIN_TOP
 10
100.000003
 20
55.950079
 40
0.000000
 41
0.000000
 42
0.000000
  0
SEQEND
  0
POLYLINE
  8
PIN_TOP
 66
1
 70
1
 40
0.000000
 41
0.000000
 39
0.000000
  0
VERTEX
  8
PIN_TOP
 10
95.000013
 20
53.249805
 40
0.000000
 41
0.000000
 42
0.000000
  0
VERTEX
  8
PIN_TOP
 10
95.000013
 20
54.749929
 40
0.000000
 41
0.000000
 42
0.000000
  0
VERTEX
  8
PIN_TOP
 10
100.000003
 20
54.749929
 40
0.000000
 41
0.000000
 42
0.000000
  0
VERTEX
  8
PIN_TOP
 10
100.000003
 20
53.249805
 40
0.000000
 41
0.000000
 42
0.000000
  0
SEQEND
  0
POLYLINE
  8
PG_SILKSCREEN_TOP
 66
1
 70
0
 40
0.000000
 41
0.000000
 39
0.000000
  0
VERTEX
  8
PG_SILKSCREEN_TOP
 10
101.818008
 20
50.999873
 40
0.254000
 41
0.254000
 42
0.000000
  0
VERTEX
  8
PG_SILKSCREEN_TOP
 10
101.818008
 20
56.999861
 40
0.254000
 41
0.254000
 42
0.000000
  0
SEQEND
  0
POLYLINE
  8
PG_SILKSCREEN_TOP
 66
1
 70
0
 40
0.000000
 41
0.000000
 39
0.000000
  0
VERTEX
  8
PG_SILKSCREEN_TOP
 10
100.294008
 20
50.951867
 40
0.254000
 41
0.254000
 42
0.000000
  0
VERTEX
  8
PG_SILKSCREEN_TOP
 10
101.818008
 20
50.951867
 40
0.254000
 41
0.254000
 42
0.000000
  0
SEQEND
  0
POLYLINE
  8
PG_SILKSCREEN_TOP
 66
1
 70
0
 40
0.000000
 41
0.000000
 39
0.000000
  0
VERTEX
  8
PG_SILKSCREEN_TOP
 10
100.294008
 20
50.951867
 40
0.254000
 41
0.254000
 42
0.000000
  0
VERTEX
  8
PG_SILKSCREEN_TOP
 10
100.294008
 20
56.999861
 40
0.254000
 41
0.254000
 42
0.000000
  0
SEQEND
  0
POLYLINE
  8
PG_SILKSCREEN_TOP
 66
1
 70
0
 40
0.000000
 41
0.000000
 39
0.000000
  0
VERTEX
  8
PG_SILKSCREEN_TOP
 10
100.294008
 20
56.999861
 40
0.254000
 41
0.254000
 42
0.000000
  0
VERTEX
  8
PG_SILKSCREEN_TOP
 10
101.818008
 20
56.999861
 40
0.254000
 41
0.254000
 42
0.000000
  0
SEQEND
  0
POLYLINE
  8
PG_SILKSCREEN_TOP
 66
1
 70
0
 40
0.000000
 41
0.000000
 39
0.000000
  0
VERTEX
  8
PG_SILKSCREEN_TOP
 10
101.818008
 20
56.689219
 40
0.254000
 41
0.254000
 42
0.000000
  0
VERTEX
  8
PG_SILKSCREEN_TOP
 10
113.318112
 20
56.689219
 40
0.254000
 41
0.254000
 42
0.000000
  0
SEQEND
  0
POLYLINE
  8
PG_SILKSCREEN_TOP
 66
1
 70
0
 40
0.000000
 41
0.000000
 39
0.000000
  0
VERTEX
  8
PG_SILKSCREEN_TOP
 10
101.818008
 20
51.332867
 40
0.254000
 41
0.254000
 42
0.000000
  0
VERTEX
  8
PG_SILKSCREEN_TOP
 10
113.318112
 20
51.332867
 40
0.254000
 41
0.254000
 42
0.000000
  0
SEQEND
  0
POLYLINE
  8
PG_SILKSCREEN_TOP
 66
1
 70
0
 40
0.000000
 41
0.000000
 39
0.000000
  0
VERTEX
  8
PG_SILKSCREEN_TOP
 10
113.318112
 20
51.332867
 40
0.254000
 41
0.254000
 42
0.000000
  0
VERTEX
  8
PG_SILKSCREEN_TOP
 10
113.318112
 20
56.689219
 40
0.254000
 41
0.254000
 42
0.000000
  0
SEQEND
  0
POLYLINE
  8
PG_SILKSCREEN_TOP
 66
1
 70
0
 40
0.000000
 41
0.000000
 39
0.000000
  0
VERTEX
  8
PG_SILKSCREEN_TOP
 10
103.002664
 20
51.332867
 40
0.254000
 41
0.254000
 42
0.000000
  0
VERTEX
  8
PG_SILKSCREEN_TOP
 10
103.002664
 20
56.689219
 40
0.254000
 41
0.254000
 42
0.000000
  0
SEQEND
  0
POLYLINE
  8
PG_SILKSCREEN_TOP
 66
1
 70
0
 40
0.000000
 41
0.000000
 39
0.000000
  0
VERTEX
  8
PG_SILKSCREEN_TOP
 10
103.020952
 20
51.332867
 40
0.254000
 41
0.254000
 42
0.000000
  0
VERTEX
  8
PG_SILKSCREEN_TOP
 10
103.927986
 20
56.689219
 40
0.254000
 41
0.254000
 42
0.000000
  0
SEQEND
  0
POLYLINE
  8
PG_SILKSCREEN_TOP
 66
1
 70
0
 40
0.000000
 41
0.000000
 39
0.000000
  0
VERTEX
  8
PG_SILKSCREEN_TOP
 10
103.927986
 20
51.332867
 40
0.254000
 41
0.254000
 42
0.000000
  0
VERTEX
  8
PG_SILKSCREEN_TOP
 10
103.927986
 20
56.689219
 40
0.254000
 41
0.254000
 42
0.000000
  0
SEQEND
  0
POLYLINE
  8
PG_SILKSCREEN_TOP
 66
1
 70
0
 40
0.000000
 41
0.000000
 39
0.000000
  0
VERTEX
  8
PG_SILKSCREEN_TOP
 10
103.927986
 20
51.332867
 40
0.254000
 41
0.254000
 42
0.000000
  0
VERTEX
  8
PG_SILKSCREEN_TOP
 10
104.835274
 20
56.689219
 40
0.254000
 41
0.254000
 42
0.000000
  0
SEQEND
  0
POLYLINE
  8
PG_SILKSCREEN_TOP
 66
1
 70
0
 40
0.000000
 41
0.000000
 39
0.000000
  0
VERTEX
  8
PG_SILKSCREEN_TOP
 10
104.835274
 20
51.332867
 40
0.254000
 41
0.254000
 42
0.000000
  0
VERTEX
  8
PG_SILKSCREEN_TOP
 10
104.835274
 20
56.689219
 40
0.254000
 41
0.254000
 42
0.000000
  0
SEQEND
  0
POLYLINE
  8
PG_SILKSCREEN_TOP
 66
1
 70
0
 40
0.000000
 41
0.000000
 39
0.000000
  0
VERTEX
  8
PG_SILKSCREEN_TOP
 10
104.835274
 20
51.332867
 40
0.254000
 41
0.254000
 42
0.000000
  0
VERTEX
  8
PG_SILKSCREEN_TOP
 10
105.760596
 20
56.689219
 40
0.254000
 41
0.254000
 42
0.000000
  0
SEQEND
  0
POLYLINE
  8
PG_SILKSCREEN_TOP
 66
1
 70
0
 40
0.000000
 41
0.000000
 39
0.000000
  0
VERTEX
  8
PG_SILKSCREEN_TOP
 10
105.760596
 20
51.332867
 40
0.254000
 41
0.254000
 42
0.000000
  0
VERTEX
  8
PG_SILKSCREEN_TOP
 10
105.760596
 20
56.689219
 40
0.254000
 41
0.254000
 42
0.000000
  0
SEQEND
  0
POLYLINE
  8
PG_SILKSCREEN_TOP
 66
1
 70
0
 40
0.000000
 41
0.000000
 39
0.000000
  0
VERTEX
  8
PG_SILKSCREEN_TOP
 10
105.760596
 20
51.332867
 40
0.254000
 41
0.254000
 42
0.000000
  0
VERTEX
  8
PG_SILKSCREEN_TOP
 10
106.685664
 20
56.689219
 40
0.254000
 41
0.254000
 42
0.000000
  0
SEQEND
  0
POLYLINE
  8
PG_SILKSCREEN_TOP
 66
1
 70
0
 40
0.000000
 41
0.000000
 39
0.000000
  0
VERTEX
  8
PG_SILKSCREEN_TOP
 10
106.685664
 20
51.332867
 40
0.254000
 41
0.254000
 42
0.000000
  0
VERTEX
  8
PG_SILKSCREEN_TOP
 10
106.685664
 20
56.689219
 40
0.254000
 41
0.254000
 42
0.000000
  0
SEQEND
  0
POLYLINE
  8
PG_SILKSCREEN_TOP
 66
1
 70
0
 40
0.000000
 41
0.000000
 39
0.000000
  0
VERTEX
  8
PG_SILKSCREEN_TOP
 10
106.685664
 20
51.332867
 40
0.254000
 41
0.254000
 42
0.000000
  0
VERTEX
  8
PG_SILKSCREEN_TOP
 10
107.574664
 20
56.689219
 40
0.254000
 41
0.254000
 42
0.000000
  0
SEQEND
  0
POLYLINE
  8
PG_SILKSCREEN_TOP
 66
1
 70
0
 40
0.000000
 41
0.000000
 39
0.000000
  0
VERTEX
  8
PG_SILKSCREEN_TOP
 10
107.574664
 20
51.332867
 40
0.254000
 41
0.254000
 42
0.000000
  0
VERTEX
  8
PG_SILKSCREEN_TOP
 10
107.574664
 20
56.689219
 40
0.254000
 41
0.254000
 42
0.000000
  0
SEQEND
  0
POLYLINE
  8
PG_SILKSCREEN_TOP
 66
1
 70
0
 40
0.000000
 41
0.000000
 39
0.000000
  0
VERTEX
  8
PG_SILKSCREEN_TOP
 10
107.574664
 20
51.332867
 40
0.254000
 41
0.254000
 42
0.000000
  0
VERTEX
  8
PG_SILKSCREEN_TOP
 10
108.445630
 20
56.689219
 40
0.254000
 41
0.254000
 42
0.000000
  0
SEQEND
  0
POLYLINE
  8
PG_SILKSCREEN_TOP
 66
1
 70
0
 40
0.000000
 41
0.000000
 39
0.000000
  0
VERTEX
  8
PG_SILKSCREEN_TOP
 10
108.445630
 20
51.332867
 40
0.254000
 41
0.254000
 42
0.000000
  0
VERTEX
  8
PG_SILKSCREEN_TOP
 10
108.445630
 20
56.689219
 40
0.254000
 41
0.254000
 42
0.000000
  0
SEQEND
  0
POLYLINE
  8
PG_SILKSCREEN_TOP
 66
1
 70
0
 40
0.000000
 41
0.000000
 39
0.000000
  0
VERTEX
  8
PG_SILKSCREEN_TOP
 10
108.445630
 20
51.332867
 40
0.254000
 41
0.254000
 42
0.000000
  0
VERTEX
  8
PG_SILKSCREEN_TOP
 10
109.280274
 20
56.689219
 40
0.254000
 41
0.254000
 42
0.000000
  0
SEQEND
  0
POLYLINE
  8
PG_SILKSCREEN_TOP
 66
1
 70
0
 40
0.000000
 41
0.000000
 39
0.000000
  0
VERTEX
  8
PG_SILKSCREEN_TOP
 10
109.280274
 20
51.332867
 40
0.254000
 41
0.254000
 42
0.000000
  0
VERTEX
  8
PG_SILKSCREEN_TOP
 10
109.280274
 20
56.689219
 40
0.254000
 41
0.254000
 42
0.000000
  0
SEQEND
  0
POLYLINE
  8
PG_SILKSCREEN_TOP
 66
1
 70
0
 40
0.000000
 41
0.000000
 39
0.000000
  0
VERTEX
  8
PG_SILKSCREEN_TOP
 10
109.280274
 20
51.332867
 40
0.254000
 41
0.254000
 42
0.000000
  0
VERTEX
  8
PG_SILKSCREEN_TOP
 10
110.096630
 20
56.689219
 40
0.254000
 41
0.254000
 42
0.000000
  0
SEQEND
  0
POLYLINE
  8
PG_SILKSCREEN_TOP
 66
1
 70
0
 40
0.000000
 41
0.000000
 39
0.000000
  0
VERTEX
  8
PG_SILKSCREEN_TOP
 10
110.096630
 20
51.332867
 40
0.254000
 41
0.254000
 42
0.000000
  0
VERTEX
  8
PG_SILKSCREEN_TOP
 10
110.096630
 20
56.689219
 40
0.254000
 41
0.254000
 42
0.000000
  0
SEQEND
  0
POLYLINE
  8
PG_SILKSCREEN_TOP
 66
1
 70
0
 40
0.000000
 41
0.000000
 39
0.000000
  0
VERTEX
  8
PG_SILKSCREEN_TOP
 10
110.096630
 20
51.332867
 40
0.254000
 41
0.254000
 42
0.000000
  0
VERTEX
  8
PG_SILKSCREEN_TOP
 10
110.949308
 20
56.689219
 40
0.254000
 41
0.254000
 42
0.000000
  0
SEQEND
  0
POLYLINE
  8
PG_SILKSCREEN_TOP
 66
1
 70
0
 40
0.000000
 41
0.000000
 39
0.000000
  0
VERTEX
  8
PG_SILKSCREEN_TOP
 10
110.949308
 20
51.332867
 40
0.254000
 41
0.254000
 42
0.000000
  0
VERTEX
  8
PG_SILKSCREEN_TOP
 10
110.949308
 20
56.689219
 40
0.254000
 41
0.254000
 42
0.000000
  0
SEQEND
  0
POLYLINE
  8
PG_SILKSCREEN_TOP
 66
1
 70
0
 40
0.000000
 41
0.000000
 39
0.000000
  0
VERTEX
  8
PG_SILKSCREEN_TOP
 10
110.949308
 20
51.332867
 40
0.254000
 41
0.254000
 42
0.000000
  0
VERTEX
  8
PG_SILKSCREEN_TOP
 10
111.765664
 20
56.689219
 40
0.254000
 41
0.254000
 42
0.000000
  0
SEQEND
  0
POLYLINE
  8
PG_SILKSCREEN_TOP
 66
1
 70
0
 40
0.000000
 41
0.000000
 39
0.000000
  0
VERTEX
  8
PG_SILKSCREEN_TOP
 10
111.765664
 20
51.332867
 40
0.254000
 41
0.254000
 42
0.000000
  0
VERTEX
  8
PG_SILKSCREEN_TOP
 10
111.765664
 20
56.689219
 40
0.254000
 41
0.254000
 42
0.000000
  0
SEQEND
  0
POLYLINE
  8
PIN_TOP
 66
1
 70
1
 40
0.000000
 41
0.000000
 39
0.000000
  0
VERTEX
  8
PIN_TOP
 10
95.000013
 20
2.850032
 40
0.000000
 41
0.000000
 42
0.000000
  0
VERTEX
  8
PIN_TOP
 10
95.000013
 20
4.049928
 40
0.000000
 41
0.000000
 42
0.000000
  0
VERTEX
  8
PIN_TOP
 10
100.000003
 20
4.049928
 40
0.000000
 41
0.000000
 42
0.000000
  0
VERTEX
  8
PIN_TOP
 10
100.000003
 20
2.850032
 40
0.000000
 41
0.000000
 42
0.000000
  0
SEQEND
  0
POLYLINE
  8
PIN_TOP
 66
1
 70
1
 40
0.000000
 41
0.000000
 39
0.000000
  0
VERTEX
  8
PIN_TOP
 10
95.000013
 20
7.950098
 40
0.000000
 41
0.000000
 42
0.000000
  0
VERTEX
  8
PIN_TOP
 10
95.000013
 20
9.149994
 40
0.000000
 41
0.000000
 42
0.000000
  0
VERTEX
  8
PIN_TOP
 10
100.000003
 20
9.149994
 40
0.000000
 41
0.000000
 42
0.000000
  0
VERTEX
  8
PIN_TOP
 10
100.000003
 20
7.950098
 40
0.000000
 41
0.000000
 42
0.000000
  0
SEQEND
  0
POLYLINE
  8
PIN_TOP
 66
1
 70
1
 40
0.000000
 41
0.000000
 39
0.000000
  0
VERTEX
  8
PIN_TOP
 10
95.000013
 20
5.249824
 40
0.000000
 41
0.000000
 42
0.000000
  0
VERTEX
  8
PIN_TOP
 10
95.000013
 20
6.749948
 40
0.000000
 41
0.000000
 42
0.000000
  0
VERTEX
  8
PIN_TOP
 10
100.000003
 20
6.749948
 40
0.000000
 41
0.000000
 42
0.000000
  0
VERTEX
  8
PIN_TOP
 10
100.000003
 20
5.249824
 40
0.000000
 41
0.000000
 42
0.000000
  0
SEQEND
  0
POLYLINE
  8
PG_SILKSCREEN_TOP
 66
1
 70
0
 40
0.000000
 41
0.000000
 39
0.000000
  0
VERTEX
  8
PG_SILKSCREEN_TOP
 10
101.818008
 20
2.999892
 40
0.254000
 41
0.254000
 42
0.000000
  0
VERTEX
  8
PG_SILKSCREEN_TOP
 10
101.818008
 20
8.999880
 40
0.254000
 41
0.254000
 42
0.000000
  0
SEQEND
  0
POLYLINE
  8
PG_SILKSCREEN_TOP
 66
1
 70
0
 40
0.000000
 41
0.000000
 39
0.000000
  0
VERTEX
  8
PG_SILKSCREEN_TOP
 10
100.294008
 20
2.951886
 40
0.254000
 41
0.254000
 42
0.000000
  0
VERTEX
  8
PG_SILKSCREEN_TOP
 10
101.818008
 20
2.951886
 40
0.254000
 41
0.254000
 42
0.000000
  0
SEQEND
  0
POLYLINE
  8
PG_SILKSCREEN_TOP
 66
1
 70
0
 40
0.000000
 41
0.000000
 39
0.000000
  0
VERTEX
  8
PG_SILKSCREEN_TOP
 10
100.294008
 20
2.951886
 40
0.254000
 41
0.254000
 42
0.000000
  0
VERTEX
  8
PG_SILKSCREEN_TOP
 10
100.294008
 20
8.999880
 40
0.254000
 41
0.254000
 42
0.000000
  0
SEQEND
  0
POLYLINE
  8
PG_SILKSCREEN_TOP
 66
1
 70
0
 40
0.000000
 41
0.000000
 39
0.000000
  0
VERTEX
  8
PG_SILKSCREEN_TOP
 10
100.294008
 20
8.999880
 40
0.254000
 41
0.254000
 42
0.000000
  0
VERTEX
  8
PG_SILKSCREEN_TOP
 10
101.818008
 20
8.999880
 40
0.254000
 41
0.254000
 42
0.000000
  0
SEQEND
  0
POLYLINE
  8
PG_SILKSCREEN_TOP
 66
1
 70
0
 40
0.000000
 41
0.000000
 39
0.000000
  0
VERTEX
  8
PG_SILKSCREEN_TOP
 10
101.818008
 20
8.689238
 40
0.254000
 41
0.254000
 42
0.000000
  0
VERTEX
  8
PG_SILKSCREEN_TOP
 10
113.318112
 20
8.689238
 40
0.254000
 41
0.254000
 42
0.000000
  0
SEQEND
  0
POLYLINE
  8
PG_SILKSCREEN_TOP
 66
1
 70
0
 40
0.000000
 41
0.000000
 39
0.000000
  0
VERTEX
  8
PG_SILKSCREEN_TOP
 10
101.818008
 20
3.332886
 40
0.254000
 41
0.254000
 42
0.000000
  0
VERTEX
  8
PG_SILKSCREEN_TOP
 10
113.318112
 20
3.332886
 40
0.254000
 41
0.254000
 42
0.000000
  0
SEQEND
  0
POLYLINE
  8
PG_SILKSCREEN_TOP
 66
1
 70
0
 40
0.000000
 41
0.000000
 39
0.000000
  0
VERTEX
  8
PG_SILKSCREEN_TOP
 10
113.318112
 20
3.332886
 40
0.254000
 41
0.254000
 42
0.000000
  0
VERTEX
  8
PG_SILKSCREEN_TOP
 10
113.318112
 20
8.689238
 40
0.254000
 41
0.254000
 42
0.000000
  0
SEQEND
  0
POLYLINE
  8
PG_SILKSCREEN_TOP
 66
1
 70
0
 40
0.000000
 41
0.000000
 39
0.000000
  0
VERTEX
  8
PG_SILKSCREEN_TOP
 10
103.002664
 20
3.332886
 40
0.254000
 41
0.254000
 42
0.000000
  0
VERTEX
  8
PG_SILKSCREEN_TOP
 10
103.002664
 20
8.689238
 40
0.254000
 41
0.254000
 42
0.000000
  0
SEQEND
  0
POLYLINE
  8
PG_SILKSCREEN_TOP
 66
1
 70
0
 40
0.000000
 41
0.000000
 39
0.000000
  0
VERTEX
  8
PG_SILKSCREEN_TOP
 10
103.020952
 20
3.332886
 40
0.254000
 41
0.254000
 42
0.000000
  0
VERTEX
  8
PG_SILKSCREEN_TOP
 10
103.927986
 20
8.689238
 40
0.254000
 41
0.254000
 42
0.000000
  0
SEQEND
  0
POLYLINE
  8
PG_SILKSCREEN_TOP
 66
1
 70
0
 40
0.000000
 41
0.000000
 39
0.000000
  0
VERTEX
  8
PG_SILKSCREEN_TOP
 10
103.927986
 20
3.332886
 40
0.254000
 41
0.254000
 42
0.000000
  0
VERTEX
  8
PG_SILKSCREEN_TOP
 10
103.927986
 20
8.689238
 40
0.254000
 41
0.254000
 42
0.000000
  0
SEQEND
  0
POLYLINE
  8
PG_SILKSCREEN_TOP
 66
1
 70
0
 40
0.000000
 41
0.000000
 39
0.000000
  0
VERTEX
  8
PG_SILKSCREEN_TOP
 10
103.927986
 20
3.332886
 40
0.254000
 41
0.254000
 42
0.000000
  0
VERTEX
  8
PG_SILKSCREEN_TOP
 10
104.835274
 20
8.689238
 40
0.254000
 41
0.254000
 42
0.000000
  0
SEQEND
  0
POLYLINE
  8
PG_SILKSCREEN_TOP
 66
1
 70
0
 40
0.000000
 41
0.000000
 39
0.000000
  0
VERTEX
  8
PG_SILKSCREEN_TOP
 10
104.835274
 20
3.332886
 40
0.254000
 41
0.254000
 42
0.000000
  0
VERTEX
  8
PG_SILKSCREEN_TOP
 10
104.835274
 20
8.689238
 40
0.254000
 41
0.254000
 42
0.000000
  0
SEQEND
  0
POLYLINE
  8
PG_SILKSCREEN_TOP
 66
1
 70
0
 40
0.000000
 41
0.000000
 39
0.000000
  0
VERTEX
  8
PG_SILKSCREEN_TOP
 10
104.835274
 20
3.332886
 40
0.254000
 41
0.254000
 42
0.000000
  0
VERTEX
  8
PG_SILKSCREEN_TOP
 10
105.760596
 20
8.689238
 40
0.254000
 41
0.254000
 42
0.000000
  0
SEQEND
  0
POLYLINE
  8
PG_SILKSCREEN_TOP
 66
1
 70
0
 40
0.000000
 41
0.000000
 39
0.000000
  0
VERTEX
  8
PG_SILKSCREEN_TOP
 10
105.760596
 20
3.332886
 40
0.254000
 41
0.254000
 42
0.000000
  0
VERTEX
  8
PG_SILKSCREEN_TOP
 10
105.760596
 20
8.689238
 40
0.254000
 41
0.254000
 42
0.000000
  0
SEQEND
  0
POLYLINE
  8
PG_SILKSCREEN_TOP
 66
1
 70
0
 40
0.000000
 41
0.000000
 39
0.000000
  0
VERTEX
  8
PG_SILKSCREEN_TOP
 10
105.760596
 20
3.332886
 40
0.254000
 41
0.254000
 42
0.000000
  0
VERTEX
  8
PG_SILKSCREEN_TOP
 10
106.685664
 20
8.689238
 40
0.254000
 41
0.254000
 42
0.000000
  0
SEQEND
  0
POLYLINE
  8
PG_SILKSCREEN_TOP
 66
1
 70
0
 40
0.000000
 41
0.000000
 39
0.000000
  0
VERTEX
  8
PG_SILKSCREEN_TOP
 10
106.685664
 20
3.332886
 40
0.254000
 41
0.254000
 42
0.000000
  0
VERTEX
  8
PG_SILKSCREEN_TOP
 10
106.685664
 20
8.689238
 40
0.254000
 41
0.254000
 42
0.000000
  0
SEQEND
  0
POLYLINE
  8
PG_SILKSCREEN_TOP
 66
1
 70
0
 40
0.000000
 41
0.000000
 39
0.000000
  0
VERTEX
  8
PG_SILKSCREEN_TOP
 10
106.685664
 20
3.332886
 40
0.254000
 41
0.254000
 42
0.000000
  0
VERTEX
  8
PG_SILKSCREEN_TOP
 10
107.574664
 20
8.689238
 40
0.254000
 41
0.254000
 42
0.000000
  0
SEQEND
  0
POLYLINE
  8
PG_SILKSCREEN_TOP
 66
1
 70
0
 40
0.000000
 41
0.000000
 39
0.000000
  0
VERTEX
  8
PG_SILKSCREEN_TOP
 10
107.574664
 20
3.332886
 40
0.254000
 41
0.254000
 42
0.000000
  0
VERTEX
  8
PG_SILKSCREEN_TOP
 10
107.574664
 20
8.689238
 40
0.254000
 41
0.254000
 42
0.000000
  0
SEQEND
  0
POLYLINE
  8
PG_SILKSCREEN_TOP
 66
1
 70
0
 40
0.000000
 41
0.000000
 39
0.000000
  0
VERTEX
  8
PG_SILKSCREEN_TOP
 10
107.574664
 20
3.332886
 40
0.254000
 41
0.254000
 42
0.000000
  0
VERTEX
  8
PG_SILKSCREEN_TOP
 10
108.445630
 20
8.689238
 40
0.254000
 41
0.254000
 42
0.000000
  0
SEQEND
  0
POLYLINE
  8
PG_SILKSCREEN_TOP
 66
1
 70
0
 40
0.000000
 41
0.000000
 39
0.000000
  0
VERTEX
  8
PG_SILKSCREEN_TOP
 10
108.445630
 20
3.332886
 40
0.254000
 41
0.254000
 42
0.000000
  0
VERTEX
  8
PG_SILKSCREEN_TOP
 10
108.445630
 20
8.689238
 40
0.254000
 41
0.254000
 42
0.000000
  0
SEQEND
  0
POLYLINE
  8
PG_SILKSCREEN_TOP
 66
1
 70
0
 40
0.000000
 41
0.000000
 39
0.000000
  0
VERTEX
  8
PG_SILKSCREEN_TOP
 10
108.445630
 20
3.332886
 40
0.254000
 41
0.254000
 42
0.000000
  0
VERTEX
  8
PG_SILKSCREEN_TOP
 10
109.280274
 20
8.689238
 40
0.254000
 41
0.254000
 42
0.000000
  0
SEQEND
  0
POLYLINE
  8
PG_SILKSCREEN_TOP
 66
1
 70
0
 40
0.000000
 41
0.000000
 39
0.000000
  0
VERTEX
  8
PG_SILKSCREEN_TOP
 10
109.280274
 20
3.332886
 40
0.254000
 41
0.254000
 42
0.000000
  0
VERTEX
  8
PG_SILKSCREEN_TOP
 10
109.280274
 20
8.689238
 40
0.254000
 41
0.254000
 42
0.000000
  0
SEQEND
  0
POLYLINE
  8
PG_SILKSCREEN_TOP
 66
1
 70
0
 40
0.000000
 41
0.000000
 39
0.000000
  0
VERTEX
  8
PG_SILKSCREEN_TOP
 10
109.280274
 20
3.332886
 40
0.254000
 41
0.254000
 42
0.000000
  0
VERTEX
  8
PG_SILKSCREEN_TOP
 10
110.096630
 20
8.689238
 40
0.254000
 41
0.254000
 42
0.000000
  0
SEQEND
  0
POLYLINE
  8
PG_SILKSCREEN_TOP
 66
1
 70
0
 40
0.000000
 41
0.000000
 39
0.000000
  0
VERTEX
  8
PG_SILKSCREEN_TOP
 10
110.096630
 20
3.332886
 40
0.254000
 41
0.254000
 42
0.000000
  0
VERTEX
  8
PG_SILKSCREEN_TOP
 10
110.096630
 20
8.689238
 40
0.254000
 41
0.254000
 42
0.000000
  0
SEQEND
  0
POLYLINE
  8
PG_SILKSCREEN_TOP
 66
1
 70
0
 40
0.000000
 41
0.000000
 39
0.000000
  0
VERTEX
  8
PG_SILKSCREEN_TOP
 10
110.096630
 20
3.332886
 40
0.254000
 41
0.254000
 42
0.000000
  0
VERTEX
  8
PG_SILKSCREEN_TOP
 10
110.949308
 20
8.689238
 40
0.254000
 41
0.254000
 42
0.000000
  0
SEQEND
  0
POLYLINE
  8
PG_SILKSCREEN_TOP
 66
1
 70
0
 40
0.000000
 41
0.000000
 39
0.000000
  0
VERTEX
  8
PG_SILKSCREEN_TOP
 10
110.949308
 20
3.332886
 40
0.254000
 41
0.254000
 42
0.000000
  0
VERTEX
  8
PG_SILKSCREEN_TOP
 10
110.949308
 20
8.689238
 40
0.254000
 41
0.254000
 42
0.000000
  0
SEQEND
  0
POLYLINE
  8
PG_SILKSCREEN_TOP
 66
1
 70
0
 40
0.000000
 41
0.000000
 39
0.000000
  0
VERTEX
  8
PG_SILKSCREEN_TOP
 10
110.949308
 20
3.332886
 40
0.254000
 41
0.254000
 42
0.000000
  0
VERTEX
  8
PG_SILKSCREEN_TOP
 10
111.765664
 20
8.689238
 40
0.254000
 41
0.254000
 42
0.000000
  0
SEQEND
  0
POLYLINE
  8
PG_SILKSCREEN_TOP
 66
1
 70
0
 40
0.000000
 41
0.000000
 39
0.000000
  0
VERTEX
  8
PG_SILKSCREEN_TOP
 10
111.765664
 20
3.332886
 40
0.254000
 41
0.254000
 42
0.000000
  0
VERTEX
  8
PG_SILKSCREEN_TOP
 10
111.765664
 20
8.689238
 40
0.254000
 41
0.254000
 42
0.000000
  0
SEQEND
  0
POLYLINE
  8
PIN_TOP
 66
1
 70
1
 40
0.000000
 41
0.000000
 39
0.000000
  0
VERTEX
  8
PIN_TOP
 10
5.566283
 20
4.325036
 40
0.000000
 41
0.000000
 42
0.000000
  0
VERTEX
  8
PIN_TOP
 10
6.734683
 20
4.325036
 40
0.000000
 41
0.000000
 42
0.000000
  0
VERTEX
  8
PIN_TOP
 10
6.734683
 20
3.715436
 40
0.000000
 41
0.000000
 42
0.000000
  0
VERTEX
  8
PIN_TOP
 10
5.566283
 20
3.715436
 40
0.000000
 41
0.000000
 42
0.000000
  0
SEQEND
  0
POLYLINE
  8
PIN_TOP
 66
1
 70
1
 40
0.000000
 41
0.000000
 39
0.000000
  0
VERTEX
  8
PIN_TOP
 10
5.566283
 20
5.124933
 40
0.000000
 41
0.000000
 42
0.000000
  0
VERTEX
  8
PIN_TOP
 10
6.734683
 20
5.124933
 40
0.000000
 41
0.000000
 42
0.000000
  0
VERTEX
  8
PIN_TOP
 10
6.734683
 20
4.515333
 40
0.000000
 41
0.000000
 42
0.000000
  0
VERTEX
  8
PIN_TOP
 10
5.566283
 20
4.515333
 40
0.000000
 41
0.000000
 42
0.000000
  0
SEQEND
  0
POLYLINE
  8
PIN_TOP
 66
1
 70
1
 40
0.000000
 41
0.000000
 39
0.000000
  0
VERTEX
  8
PIN_TOP
 10
5.566283
 20
5.622417
 40
0.000000
 41
0.000000
 42
0.000000
  0
VERTEX
  8
PIN_TOP
 10
6.734683
 20
5.622417
 40
0.000000
 41
0.000000
 42
0.000000
  0
VERTEX
  8
PIN_TOP
 10
6.734683
 20
5.317617
 40
0.000000
 41
0.000000
 42
0.000000
  0
VERTEX
  8
PIN_TOP
 10
5.566283
 20
5.317617
 40
0.000000
 41
0.000000
 42
0.000000
  0
SEQEND
  0
POLYLINE
  8
PIN_TOP
 66
1
 70
1
 40
0.000000
 41
0.000000
 39
0.000000
  0
VERTEX
  8
PIN_TOP
 10
5.566283
 20
6.122619
 40
0.000000
 41
0.000000
 42
0.000000
  0
VERTEX
  8
PIN_TOP
 10
6.734683
 20
6.122619
 40
0.000000
 41
0.000000
 42
0.000000
  0
VERTEX
  8
PIN_TOP
 10
6.734683
 20
5.817819
 40
0.000000
 41
0.000000
 42
0.000000
  0
VERTEX
  8
PIN_TOP
 10
5.566283
 20
5.817819
 40
0.000000
 41
0.000000
 42
0.000000
  0
SEQEND
  0
POLYLINE
  8
PIN_TOP
 66
1
 70
1
 40
0.000000
 41
0.000000
 39
0.000000
  0
VERTEX
  8
PIN_TOP
 10
5.566283
 20
6.622440
 40
0.000000
 41
0.000000
 42
0.000000
  0
VERTEX
  8
PIN_TOP
 10
6.734683
 20
6.622440
 40
0.000000
 41
0.000000
 42
0.000000
  0
VERTEX
  8
PIN_TOP
 10
6.734683
 20
6.317640
 40
0.000000
 41
0.000000
 42
0.000000
  0
VERTEX
  8
PIN_TOP
 10
5.566283
 20
6.317640
 40
0.000000
 41
0.000000
 42
0.000000
  0
SEQEND
  0
POLYLINE
  8
PIN_TOP
 66
1
 70
1
 40
0.000000
 41
0.000000
 39
0.000000
  0
VERTEX
  8
PIN_TOP
 10
5.566283
 20
7.122617
 40
0.000000
 41
0.000000
 42
0.000000
  0
VERTEX
  8
PIN_TOP
 10
6.734683
 20
7.122617
 40
0.000000
 41
0.000000
 42
0.000000
  0
VERTEX
  8
PIN_TOP
 10
6.734683
 20
6.817817
 40
0.000000
 41
0.000000
 42
0.000000
  0
VERTEX
  8
PIN_TOP
 10
5.566283
 20
6.817817
 40
0.000000
 41
0.000000
 42
0.000000
  0
SEQEND
  0
POLYLINE
  8
PIN_TOP
 66
1
 70
1
 40
0.000000
 41
0.000000
 39
0.000000
  0
VERTEX
  8
PIN_TOP
 10
5.566283
 20
7.622438
 40
0.000000
 41
0.000000
 42
0.000000
  0
VERTEX
  8
PIN_TOP
 10
6.734683
 20
7.622438
 40
0.000000
 41
0.000000
 42
0.000000
  0
VERTEX
  8
PIN_TOP
 10
6.734683
 20
7.317638
 40
0.000000
 41
0.000000
 42
0.000000
  0
VERTEX
  8
PIN_TOP
 10
5.566283
 20
7.317638
 40
0.000000
 41
0.000000
 42
0.000000
  0
SEQEND
  0
POLYLINE
  8
PIN_TOP
 66
1
 70
1
 40
0.000000
 41
0.000000
 39
0.000000
  0
VERTEX
  8
PIN_TOP
 10
5.566283
 20
8.122615
 40
0.000000
 41
0.000000
 42
0.000000
  0
VERTEX
  8
PIN_TOP
 10
6.734683
 20
8.122615
 40
0.000000
 41
0.000000
 42
0.000000
  0
VERTEX
  8
PIN_TOP
 10
6.734683
 20
7.817815
 40
0.000000
 41
0.000000
 42
0.000000
  0
VERTEX
  8
PIN_TOP
 10
5.566283
 20
7.817815
 40
0.000000
 41
0.000000
 42
0.000000
  0
SEQEND
  0
POLYLINE
  8
PIN_TOP
 66
1
 70
1
 40
0.000000
 41
0.000000
 39
0.000000
  0
VERTEX
  8
PIN_TOP
 10
5.566283
 20
8.622436
 40
0.000000
 41
0.000000
 42
0.000000
  0
VERTEX
  8
PIN_TOP
 10
6.734683
 20
8.622436
 40
0.000000
 41
0.000000
 42
0.000000
  0
VERTEX
  8
PIN_TOP
 10
6.734683
 20
8.317636
 40
0.000000
 41
0.000000
 42
0.000000
  0
VERTEX
  8
PIN_TOP
 10
5.566283
 20
8.317636
 40
0.000000
 41
0.000000
 42
0.000000
  0
SEQEND
  0
POLYLINE
  8
PIN_TOP
 66
1
 70
1
 40
0.000000
 41
0.000000
 39
0.000000
  0
VERTEX
  8
PIN_TOP
 10
5.566283
 20
9.122639
 40
0.000000
 41
0.000000
 42
0.000000
  0
VERTEX
  8
PIN_TOP
 10
6.734683
 20
9.122639
 40
0.000000
 41
0.000000
 42
0.000000
  0
VERTEX
  8
PIN_TOP
 10
6.734683
 20
8.817839
 40
0.000000
 41
0.000000
 42
0.000000
  0
VERTEX
  8
PIN_TOP
 10
5.566283
 20
8.817839
 40
0.000000
 41
0.000000
 42
0.000000
  0
SEQEND
  0
POLYLINE
  8
PIN_TOP
 66
1
 70
1
 40
0.000000
 41
0.000000
 39
0.000000
  0
VERTEX
  8
PIN_TOP
 10
5.566283
 20
9.924923
 40
0.000000
 41
0.000000
 42
0.000000
  0
VERTEX
  8
PIN_TOP
 10
6.734683
 20
9.924923
 40
0.000000
 41
0.000000
 42
0.000000
  0
VERTEX
  8
PIN_TOP
 10
6.734683
 20
9.315323
 40
0.000000
 41
0.000000
 42
0.000000
  0
VERTEX
  8
PIN_TOP
 10
5.566283
 20
9.315323
 40
0.000000
 41
0.000000
 42
0.000000
  0
SEQEND
  0
POLYLINE
  8
PIN_TOP
 66
1
 70
1
 40
0.000000
 41
0.000000
 39
0.000000
  0
VERTEX
  8
PIN_TOP
 10
5.566283
 20
10.724820
 40
0.000000
 41
0.000000
 42
0.000000
  0
VERTEX
  8
PIN_TOP
 10
6.734683
 20
10.724820
 40
0.000000
 41
0.000000
 42
0.000000
  0
VERTEX
  8
PIN_TOP
 10
6.734683
 20
10.115220
 40
0.000000
 41
0.000000
 42
0.000000
  0
VERTEX
  8
PIN_TOP
 10
5.566283
 20
10.115220
 40
0.000000
 41
0.000000
 42
0.000000
  0
SEQEND
  0
CIRCLE
  8
PIN_TOP
 10
5.050384
 20
10.110140
 40
0.317500
  0
CIRCLE
  8
PIN_TOP
 10
5.050384
 20
4.330116
 40
0.317500
  0
POLYLINE
  8
PIN_TOP
 66
1
 70
1
 40
0.000000
 41
0.000000
 39
0.000000
  0
VERTEX
  8
PIN_TOP
 10
6.109284
 20
11.032134
 40
0.000000
 41
0.000000
 42
0.000000
  0
VERTEX
  8
PIN_TOP
 10
4.991684
 20
11.032134
 40
0.000000
 41
0.000000
 42
-1.000000
  0
VERTEX
  8
PIN_TOP
 10
4.991684
 20
12.048134
 40
0.000000
 41
0.000000
 42
0.000000
  0
VERTEX
  8
PIN_TOP
 10
6.109284
 20
12.048134
 40
0.000000
 41
0.000000
 42
-1.000000
  0
SEQEND
  0
POLYLINE
  8
PIN_TOP
 66
1
 70
1
 40
0.000000
 41
0.000000
 39
0.000000
  0
VERTEX
  8
PIN_TOP
 10
6.109284
 20
2.392121
 40
0.000000
 41
0.000000
 42
0.000000
  0
VERTEX
  8
PIN_TOP
 10
4.991684
 20
2.392121
 40
0.000000
 41
0.000000
 42
-1.000000
  0
VERTEX
  8
PIN_TOP
 10
4.991684
 20
3.408121
 40
0.000000
 41
0.000000
 42
0.000000
  0
VERTEX
  8
PIN_TOP
 10
6.109284
 20
3.408121
 40
0.000000
 41
0.000000
 42
-1.000000
  0
SEQEND
  0
POLYLINE
  8
PIN_TOP
 66
1
 70
1
 40
0.000000
 41
0.000000
 39
0.000000
  0
VERTEX
  8
PIN_TOP
 10
1.806778
 20
11.032134
 40
0.000000
 41
0.000000
 42
0.000000
  0
VERTEX
  8
PIN_TOP
 10
0.993978
 20
11.032134
 40
0.000000
 41
0.000000
 42
-1.000000
  0
VERTEX
  8
PIN_TOP
 10
0.993978
 20
12.048134
 40
0.000000
 41
0.000000
 42
0.000000
  0
VERTEX
  8
PIN_TOP
 10
1.806778
 20
12.048134
 40
0.000000
 41
0.000000
 42
-1.000000
  0
SEQEND
  0
POLYLINE
  8
PIN_TOP
 66
1
 70
1
 40
0.000000
 41
0.000000
 39
0.000000
  0
VERTEX
  8
PIN_TOP
 10
1.806778
 20
2.392121
 40
0.000000
 41
0.000000
 42
0.000000
  0
VERTEX
  8
PIN_TOP
 10
0.993978
 20
2.392121
 40
0.000000
 41
0.000000
 42
-1.000000
  0
VERTEX
  8
PIN_TOP
 10
0.993978
 20
3.408121
 40
0.000000
 41
0.000000
 42
0.000000
  0
VERTEX
  8
PIN_TOP
 10
1.806778
 20
3.408121
 40
0.000000
 41
0.000000
 42
-1.000000
  0
SEQEND
  0
POLYLINE
  8
PG_SILKSCREEN_TOP
 66
1
 70
0
 40
0.000000
 41
0.000000
 39
0.000000
  0
VERTEX
  8
PG_SILKSCREEN_TOP
 10
4.250284
 20
11.720220
 40
0.150089
 41
0.150089
 42
0.000000
  0
VERTEX
  8
PG_SILKSCREEN_TOP
 10
2.650287
 20
11.720220
 40
0.150089
 41
0.150089
 42
0.000000
  0
SEQEND
  0
POLYLINE
  8
PG_SILKSCREEN_TOP
 66
1
 70
0
 40
0.000000
 41
0.000000
 39
0.000000
  0
VERTEX
  8
PG_SILKSCREEN_TOP
 10
2.650287
 20
2.720035
 40
0.150089
 41
0.150089
 42
0.000000
  0
VERTEX
  8
PG_SILKSCREEN_TOP
 10
4.250284
 20
2.720035
 40
0.150089
 41
0.150089
 42
0.000000
  0
SEQEND
  0
POLYLINE
  8
PG_SILKSCREEN_TOP
 66
1
 70
0
 40
0.000000
 41
0.000000
 39
0.000000
  0
VERTEX
  8
PG_SILKSCREEN_TOP
 10
0.250266
 20
11.720220
 40
0.150089
 41
0.150089
 42
0.000000
  0
VERTEX
  8
PG_SILKSCREEN_TOP
 10
-1.199515
 20
11.720220
 40
0.150089
 41
0.150089
 42
0.000000
  0
VERTEX
  8
PG_SILKSCREEN_TOP
 10
-1.199515
 20
2.720035
 40
0.150089
 41
0.150089
 42
0.000000
  0
VERTEX
  8
PG_SILKSCREEN_TOP
 10
0.250266
 20
2.720035
 40
0.150089
 41
0.150089
 42
0.000000
  0
SEQEND
  0
POLYLINE
  8
PIN_TOP
 66
1
 70
1
 40
0.000000
 41
0.000000
 39
0.000000
  0
VERTEX
  8
PIN_TOP
 10
5.566283
 20
17.465065
 40
0.000000
 41
0.000000
 42
0.000000
  0
VERTEX
  8
PIN_TOP
 10
6.734683
 20
17.465065
 40
0.000000
 41
0.000000
 42
0.000000
  0
VERTEX
  8
PIN_TOP
 10
6.734683
 20
16.855465
 40
0.000000
 41
0.000000
 42
0.000000
  0
VERTEX
  8
PIN_TOP
 10
5.566283
 20
16.855465
 40
0.000000
 41
0.000000
 42
0.000000
  0
SEQEND
  0
POLYLINE
  8
PIN_TOP
 66
1
 70
1
 40
0.000000
 41
0.000000
 39
0.000000
  0
VERTEX
  8
PIN_TOP
 10
5.566283
 20
18.264962
 40
0.000000
 41
0.000000
 42
0.000000
  0
VERTEX
  8
PIN_TOP
 10
6.734683
 20
18.264962
 40
0.000000
 41
0.000000
 42
0.000000
  0
VERTEX
  8
PIN_TOP
 10
6.734683
 20
17.655362
 40
0.000000
 41
0.000000
 42
0.000000
  0
VERTEX
  8
PIN_TOP
 10
5.566283
 20
17.655362
 40
0.000000
 41
0.000000
 42
0.000000
  0
SEQEND
  0
POLYLINE
  8
PIN_TOP
 66
1
 70
1
 40
0.000000
 41
0.000000
 39
0.000000
  0
VERTEX
  8
PIN_TOP
 10
5.566283
 20
18.762447
 40
0.000000
 41
0.000000
 42
0.000000
  0
VERTEX
  8
PIN_TOP
 10
6.734683
 20
18.762447
 40
0.000000
 41
0.000000
 42
0.000000
  0
VERTEX
  8
PIN_TOP
 10
6.734683
 20
18.457647
 40
0.000000
 41
0.000000
 42
0.000000
  0
VERTEX
  8
PIN_TOP
 10
5.566283
 20
18.457647
 40
0.000000
 41
0.000000
 42
0.000000
  0
SEQEND
  0
POLYLINE
  8
PIN_TOP
 66
1
 70
1
 40
0.000000
 41
0.000000
 39
0.000000
  0
VERTEX
  8
PIN_TOP
 10
5.566283
 20
19.262649
 40
0.000000
 41
0.000000
 42
0.000000
  0
VERTEX
  8
PIN_TOP
 10
6.734683
 20
19.262649
 40
0.000000
 41
0.000000
 42
0.000000
  0
VERTEX
  8
PIN_TOP
 10
6.734683
 20
18.957849
 40
0.000000
 41
0.000000
 42
0.000000
  0
VERTEX
  8
PIN_TOP
 10
5.566283
 20
18.957849
 40
0.000000
 41
0.000000
 42
0.000000
  0
SEQEND
  0
POLYLINE
  8
PIN_TOP
 66
1
 70
1
 40
0.000000
 41
0.000000
 39
0.000000
  0
VERTEX
  8
PIN_TOP
 10
5.566283
 20
19.762470
 40
0.000000
 41
0.000000
 42
0.000000
  0
VERTEX
  8
PIN_TOP
 10
6.734683
 20
19.762470
 40
0.000000
 41
0.000000
 42
0.000000
  0
VERTEX
  8
PIN_TOP
 10
6.734683
 20
19.457670
 40
0.000000
 41
0.000000
 42
0.000000
  0
VERTEX
  8
PIN_TOP
 10
5.566283
 20
19.457670
 40
0.000000
 41
0.000000
 42
0.000000
  0
SEQEND
  0
POLYLINE
  8
PIN_TOP
 66
1
 70
1
 40
0.000000
 41
0.000000
 39
0.000000
  0
VERTEX
  8
PIN_TOP
 10
5.566283
 20
20.262647
 40
0.000000
 41
0.000000
 42
0.000000
  0
VERTEX
  8
PIN_TOP
 10
6.734683
 20
20.262647
 40
0.000000
 41
0.000000
 42
0.000000
  0
VERTEX
  8
PIN_TOP
 10
6.734683
 20
19.957847
 40
0.000000
 41
0.000000
 42
0.000000
  0
VERTEX
  8
PIN_TOP
 10
5.566283
 20
19.957847
 40
0.000000
 41
0.000000
 42
0.000000
  0
SEQEND
  0
POLYLINE
  8
PIN_TOP
 66
1
 70
1
 40
0.000000
 41
0.000000
 39
0.000000
  0
VERTEX
  8
PIN_TOP
 10
5.566283
 20
20.762468
 40
0.000000
 41
0.000000
 42
0.000000
  0
VERTEX
  8
PIN_TOP
 10
6.734683
 20
20.762468
 40
0.000000
 41
0.000000
 42
0.000000
  0
VERTEX
  8
PIN_TOP
 10
6.734683
 20
20.457668
 40
0.000000
 41
0.000000
 42
0.000000
  0
VERTEX
  8
PIN_TOP
 10
5.566283
 20
20.457668
 40
0.000000
 41
0.000000
 42
0.000000
  0
SEQEND
  0
POLYLINE
  8
PIN_TOP
 66
1
 70
1
 40
0.000000
 41
0.000000
 39
0.000000
  0
VERTEX
  8
PIN_TOP
 10
5.566283
 20
21.262645
 40
0.000000
 41
0.000000
 42
0.000000
  0
VERTEX
  8
PIN_TOP
 10
6.734683
 20
21.262645
 40
0.000000
 41
0.000000
 42
0.000000
  0
VERTEX
  8
PIN_TOP
 10
6.734683
 20
20.957845
 40
0.000000
 41
0.000000
 42
0.000000
  0
VERTEX
  8
PIN_TOP
 10
5.566283
 20
20.957845
 40
0.000000
 41
0.000000
 42
0.000000
  0
SEQEND
  0
POLYLINE
  8
PIN_TOP
 66
1
 70
1
 40
0.000000
 41
0.000000
 39
0.000000
  0
VERTEX
  8
PIN_TOP
 10
5.566283
 20
21.762466
 40
0.000000
 41
0.000000
 42
0.000000
  0
VERTEX
  8
PIN_TOP
 10
6.734683
 20
21.762466
 40
0.000000
 41
0.000000
 42
0.000000
  0
VERTEX
  8
PIN_TOP
 10
6.734683
 20
21.457666
 40
0.000000
 41
0.000000
 42
0.000000
  0
VERTEX
  8
PIN_TOP
 10
5.566283
 20
21.457666
 40
0.000000
 41
0.000000
 42
0.000000
  0
SEQEND
  0
POLYLINE
  8
PIN_TOP
 66
1
 70
1
 40
0.000000
 41
0.000000
 39
0.000000
  0
VERTEX
  8
PIN_TOP
 10
5.566283
 20
22.262668
 40
0.000000
 41
0.000000
 42
0.000000
  0
VERTEX
  8
PIN_TOP
 10
6.734683
 20
22.262668
 40
0.000000
 41
0.000000
 42
0.000000
  0
VERTEX
  8
PIN_TOP
 10
6.734683
 20
21.957868
 40
0.000000
 41
0.000000
 42
0.000000
  0
VERTEX
  8
PIN_TOP
 10
5.566283
 20
21.957868
 40
0.000000
 41
0.000000
 42
0.000000
  0
SEQEND
  0
POLYLINE
  8
PIN_TOP
 66
1
 70
1
 40
0.000000
 41
0.000000
 39
0.000000
  0
VERTEX
  8
PIN_TOP
 10
5.566283
 20
23.064953
 40
0.000000
 41
0.000000
 42
0.000000
  0
VERTEX
  8
PIN_TOP
 10
6.734683
 20
23.064953
 40
0.000000
 41
0.000000
 42
0.000000
  0
VERTEX
  8
PIN_TOP
 10
6.734683
 20
22.455353
 40
0.000000
 41
0.000000
 42
0.000000
  0
VERTEX
  8
PIN_TOP
 10
5.566283
 20
22.455353
 40
0.000000
 41
0.000000
 42
0.000000
  0
SEQEND
  0
POLYLINE
  8
PIN_TOP
 66
1
 70
1
 40
0.000000
 41
0.000000
 39
0.000000
  0
VERTEX
  8
PIN_TOP
 10
5.566283
 20
23.864849
 40
0.000000
 41
0.000000
 42
0.000000
  0
VERTEX
  8
PIN_TOP
 10
6.734683
 20
23.864849
 40
0.000000
 41
0.000000
 42
0.000000
  0
VERTEX
  8
PIN_TOP
 10
6.734683
 20
23.255249
 40
0.000000
 41
0.000000
 42
0.000000
  0
VERTEX
  8
PIN_TOP
 10
5.566283
 20
23.255249
 40
0.000000
 41
0.000000
 42
0.000000
  0
SEQEND
  0
CIRCLE
  8
PIN_TOP
 10
5.050384
 20
23.250169
 40
0.317500
  0
CIRCLE
  8
PIN_TOP
 10
5.050384
 20
17.470145
 40
0.317500
  0
POLYLINE
  8
PIN_TOP
 66
1
 70
1
 40
0.000000
 41
0.000000
 39
0.000000
  0
VERTEX
  8
PIN_TOP
 10
6.109284
 20
24.172164
 40
0.000000
 41
0.000000
 42
0.000000
  0
VERTEX
  8
PIN_TOP
 10
4.991684
 20
24.172164
 40
0.000000
 41
0.000000
 42
-1.000000
  0
VERTEX
  8
PIN_TOP
 10
4.991684
 20
25.188164
 40
0.000000
 41
0.000000
 42
0.000000
  0
VERTEX
  8
PIN_TOP
 10
6.109284
 20
25.188164
 40
0.000000
 41
0.000000
 42
-1.000000
  0
SEQEND
  0
POLYLINE
  8
PIN_TOP
 66
1
 70
1
 40
0.000000
 41
0.000000
 39
0.000000
  0
VERTEX
  8
PIN_TOP
 10
6.109284
 20
15.532151
 40
0.000000
 41
0.000000
 42
0.000000
  0
VERTEX
  8
PIN_TOP
 10
4.991684
 20
15.532151
 40
0.000000
 41
0.000000
 42
-1.000000
  0
VERTEX
  8
PIN_TOP
 10
4.991684
 20
16.548151
 40
0.000000
 41
0.000000
 42
0.000000
  0
VERTEX
  8
PIN_TOP
 10
6.109284
 20
16.548151
 40
0.000000
 41
0.000000
 42
-1.000000
  0
SEQEND
  0
POLYLINE
  8
PIN_TOP
 66
1
 70
1
 40
0.000000
 41
0.000000
 39
0.000000
  0
VERTEX
  8
PIN_TOP
 10
1.806778
 20
24.172164
 40
0.000000
 41
0.000000
 42
0.000000
  0
VERTEX
  8
PIN_TOP
 10
0.993978
 20
24.172164
 40
0.000000
 41
0.000000
 42
-1.000000
  0
VERTEX
  8
PIN_TOP
 10
0.993978
 20
25.188164
 40
0.000000
 41
0.000000
 42
0.000000
  0
VERTEX
  8
PIN_TOP
 10
1.806778
 20
25.188164
 40
0.000000
 41
0.000000
 42
-1.000000
  0
SEQEND
  0
POLYLINE
  8
PIN_TOP
 66
1
 70
1
 40
0.000000
 41
0.000000
 39
0.000000
  0
VERTEX
  8
PIN_TOP
 10
1.806778
 20
15.532151
 40
0.000000
 41
0.000000
 42
0.000000
  0
VERTEX
  8
PIN_TOP
 10
0.993978
 20
15.532151
 40
0.000000
 41
0.000000
 42
-1.000000
  0
VERTEX
  8
PIN_TOP
 10
0.993978
 20
16.548151
 40
0.000000
 41
0.000000
 42
0.000000
  0
VERTEX
  8
PIN_TOP
 10
1.806778
 20
16.548151
 40
0.000000
 41
0.000000
 42
-1.000000
  0
SEQEND
  0
POLYLINE
  8
PG_SILKSCREEN_TOP
 66
1
 70
0
 40
0.000000
 41
0.000000
 39
0.000000
  0
VERTEX
  8
PG_SILKSCREEN_TOP
 10
4.250284
 20
24.860250
 40
0.150089
 41
0.150089
 42
0.000000
  0
VERTEX
  8
PG_SILKSCREEN_TOP
 10
2.650287
 20
24.860250
 40
0.150089
 41
0.150089
 42
0.000000
  0
SEQEND
  0
POLYLINE
  8
PG_SILKSCREEN_TOP
 66
1
 70
0
 40
0.000000
 41
0.000000
 39
0.000000
  0
VERTEX
  8
PG_SILKSCREEN_TOP
 10
2.650287
 20
15.860065
 40
0.150089
 41
0.150089
 42
0.000000
  0
VERTEX
  8
PG_SILKSCREEN_TOP
 10
4.250284
 20
15.860065
 40
0.150089
 41
0.150089
 42
0.000000
  0
SEQEND
  0
POLYLINE
  8
PG_SILKSCREEN_TOP
 66
1
 70
0
 40
0.000000
 41
0.000000
 39
0.000000
  0
VERTEX
  8
PG_SILKSCREEN_TOP
 10
0.250266
 20
24.860250
 40
0.150089
 41
0.150089
 42
0.000000
  0
VERTEX
  8
PG_SILKSCREEN_TOP
 10
-1.199515
 20
24.860250
 40
0.150089
 41
0.150089
 42
0.000000
  0
VERTEX
  8
PG_SILKSCREEN_TOP
 10
-1.199515
 20
15.860065
 40
0.150089
 41
0.150089
 42
0.000000
  0
VERTEX
  8
PG_SILKSCREEN_TOP
 10
0.250266
 20
15.860065
 40
0.150089
 41
0.150089
 42
0.000000
  0
SEQEND
  0
CIRCLE
  8
PIN_TOP
 10
6.177001
 20
46.125994
 40
0.698500
  0
CIRCLE
  8
PIN_TOP
 10
6.177001
 20
48.665994
 40
0.698500
  0
POLYLINE
  8
PIN_TOP
 66
1
 70
1
 40
0.000000
 41
0.000000
 39
0.000000
  0
VERTEX
  8
PIN_TOP
 10
8.018501
 20
46.824494
 40
0.000000
 41
0.000000
 42
0.000000
  0
VERTEX
  8
PIN_TOP
 10
9.415501
 20
46.824494
 40
0.000000
 41
0.000000
 42
0.000000
  0
VERTEX
  8
PIN_TOP
 10
9.415501
 20
45.427494
 40
0.000000
 41
0.000000
 42
0.000000
  0
VERTEX
  8
PIN_TOP
 10
8.018501
 20
45.427494
 40
0.000000
 41
0.000000
 42
0.000000
  0
SEQEND
  0
CIRCLE
  8
PIN_TOP
 10
8.717001
 20
48.665994
 40
0.698500
  0
POLYLINE
  8
PG_SILKSCREEN_TOP
 66
1
 70
0
 40
0.000000
 41
0.000000
 39
0.000000
  0
VERTEX
  8
PG_SILKSCREEN_TOP
 10
1.116990
 20
49.695989
 40
0.150012
 41
0.150012
 42
0.000000
  0
VERTEX
  8
PG_SILKSCREEN_TOP
 10
1.116990
 20
45.095998
 40
0.150012
 41
0.150012
 42
0.000000
  0
VERTEX
  8
PG_SILKSCREEN_TOP
 10
10.116998
 20
45.095998
 40
0.150012
 41
0.150012
 42
0.000000
  0
VERTEX
  8
PG_SILKSCREEN_TOP
 10
10.116998
 20
49.695989
 40
0.150012
 41
0.150012
 42
0.000000
  0
VERTEX
  8
PG_SILKSCREEN_TOP
 10
1.116990
 20
49.695989
 40
0.150012
 41
0.150012
 42
0.000000
  0
SEQEND
  0
POLYLINE
  8
PG_SILKSCREEN_TOP
 66
1
 70
0
 40
0.000000
 41
0.000000
 39
0.000000
  0
VERTEX
  8
PG_SILKSCREEN_TOP
 10
1.116990
 20
45.795997
 40
0.150012
 41
0.150012
 42
0.000000
  0
VERTEX
  8
PG_SILKSCREEN_TOP
 10
0.100000
 20
45.795997
 40
0.150012
 41
0.150012
 42
-1.000000
  0
VERTEX
  8
PG_SILKSCREEN_TOP
 10
0.100000
 20
48.995990
 40
0.150012
 41
0.150012
 42
0.000000
  0
VERTEX
  8
PG_SILKSCREEN_TOP
 10
1.116990
 20
48.995990
 40
0.150012
 41
0.150012
 42
0.000000
  0
SEQEND
  0
POLYLINE
  8
PG_SILKSCREEN_TOP
 66
1
 70
0
 40
0.000000
 41
0.000000
 39
0.000000
  0
VERTEX
  8
PG_SILKSCREEN_TOP
 10
10.911992
 20
49.225987
 40
0.150012
 41
0.150012
 42
0.000000
  0
VERTEX
  8
PG_SILKSCREEN_TOP
 10
10.311994
 20
49.225987
 40
0.150012
 41
0.150012
 42
0.000000
  0
SEQEND
  0
POLYLINE
  8
PG_SILKSCREEN_TOP
 66
1
 70
0
 40
0.000000
 41
0.000000
 39
0.000000
  0
VERTEX
  8
PG_SILKSCREEN_TOP
 10
10.611993
 20
49.525987
 40
0.150012
 41
0.150012
 42
0.000000
  0
VERTEX
  8
PG_SILKSCREEN_TOP
 10
10.611993
 20
48.925988
 40
0.150012
 41
0.150012
 42
0.000000
  0
SEQEND
  0
CIRCLE
  8
PIN_TOP
 10
14.999995
 20
56.299989
 40
2.997200
  0
CIRCLE
  8
PIN_TOP
 10
14.999995
 20
58.585989
 40
0.508000
  0
CIRCLE
  8
PIN_TOP
 10
13.383489
 20
57.916496
 40
0.508000
  0
CIRCLE
  8
PIN_TOP
 10
12.713995
 20
56.299989
 40
0.508000
  0
CIRCLE
  8
PIN_TOP
 10
13.383489
 20
54.683482
 40
0.508000
  0
CIRCLE
  8
PIN_TOP
 10
14.999995
 20
54.013989
 40
0.508000
  0
CIRCLE
  8
PIN_TOP
 10
16.616502
 20
54.683482
 40
0.508000
  0
CIRCLE
  8
PIN_TOP
 10
17.285995
 20
56.299989
 40
0.508000
  0
CIRCLE
  8
PIN_TOP
 10
16.616502
 20
57.916496
 40
0.508000
  0
CIRCLE
  8
PIN_TOP
 10
85.000008
 20
56.299989
 40
2.997200
  0
CIRCLE
  8
PIN_TOP
 10
85.000008
 20
58.585989
 40
0.508000
  0
CIRCLE
  8
PIN_TOP
 10
83.383501
 20
57.916496
 40
0.508000
  0
CIRCLE
  8
PIN_TOP
 10
82.714008
 20
56.299989
 40
0.508000
  0
CIRCLE
  8
PIN_TOP
 10
83.383501
 20
54.683482
 40
0.508000
  0
CIRCLE
  8
PIN_TOP
 10
85.000008
 20
54.013989
 40
0.508000
  0
CIRCLE
  8
PIN_TOP
 10
86.616515
 20
54.683482
 40
0.508000
  0
CIRCLE
  8
PIN_TOP
 10
87.286008
 20
56.299989
 40
0.508000
  0
CIRCLE
  8
PIN_TOP
 10
86.616515
 20
57.916496
 40
0.508000
  0
CIRCLE
  8
PIN_TOP
 10
85.000008
 20
3.699993
 40
2.997200
  0
CIRCLE
  8
PIN_TOP
 10
85.000008
 20
5.985993
 40
0.508000
  0
CIRCLE
  8
PIN_TOP
 10
83.383501
 20
5.316499
 40
0.508000
  0
CIRCLE
  8
PIN_TOP
 10
82.714008
 20
3.699993
 40
0.508000
  0
CIRCLE
  8
PIN_TOP
 10
83.383501
 20
2.083486
 40
0.508000
  0
CIRCLE
  8
PIN_TOP
 10
85.000008
 20
1.413993
 40
0.508000
  0
CIRCLE
  8
PIN_TOP
 10
86.616515
 20
2.083486
 40
0.508000
  0
CIRCLE
  8
PIN_TOP
 10
87.286008
 20
3.699993
 40
0.508000
  0
CIRCLE
  8
PIN_TOP
 10
86.616515
 20
5.316499
 40
0.508000
  0
CIRCLE
  8
PIN_TOP
 10
14.999995
 20
3.699993
 40
2.997200
  0
CIRCLE
  8
PIN_TOP
 10
14.999995
 20
5.985993
 40
0.508000
  0
CIRCLE
  8
PIN_TOP
 10
13.383489
 20
5.316499
 40
0.508000
  0
CIRCLE
  8
PIN_TOP
 10
12.713995
 20
3.699993
 40
0.508000
  0
CIRCLE
  8
PIN_TOP
 10
13.383489
 20
2.083486
 40
0.508000
  0
CIRCLE
  8
PIN_TOP
 10
14.999995
 20
1.413993
 40
0.508000
  0
CIRCLE
  8
PIN_TOP
 10
16.616502
 20
2.083486
 40
0.508000
  0
CIRCLE
  8
PIN_TOP
 10
17.285995
 20
3.699993
 40
0.508000
  0
CIRCLE
  8
PIN_TOP
 10
16.616502
 20
5.316499
 40
0.508000
  0
CIRCLE
  8
PIN_TOP
 10
3.299968
 20
13.164845
 40
0.508000
  0
CIRCLE
  8
PIN_TOP
 10
3.299968
 20
21.164829
 40
0.508000
  0
CIRCLE
  8
PIN_TOP
 10
1.999996
 20
46.245983
 40
0.444500
  0
CIRCLE
  8
PIN_TOP
 10
1.999996
 20
48.546004
 40
0.444500
  0
CIRCLE
  8
PIN_TOP
 10
4.100043
 20
28.646882
 40
0.762000
  0
CIRCLE
  8
PIN_TOP
 10
4.100043
 20
31.186882
 40
0.762000
  0
CIRCLE
  8
PIN_TOP
 10
4.100043
 20
39.357046
 40
0.762000
  0
CIRCLE
  8
PIN_TOP
 10
4.100043
 20
41.897046
 40
0.762000
  0
CIRCLE
  8
PIN_TOP
 10
15.349957
 20
29.562044
 40
0.698500
  0
CIRCLE
  8
PIN_TOP
 10
17.889957
 20
30.832044
 40
0.698500
  0
CIRCLE
  8
PIN_TOP
 10
15.349957
 20
32.102044
 40
0.698500
  0
CIRCLE
  8
PIN_TOP
 10
17.889957
 20
33.372044
 40
0.698500
  0
CIRCLE
  8
PIN_TOP
 10
15.349957
 20
34.642044
 40
0.698500
  0
CIRCLE
  8
PIN_TOP
 10
17.889957
 20
35.912044
 40
0.698500
  0
CIRCLE
  8
PIN_TOP
 10
15.349957
 20
37.182044
 40
0.698500
  0
CIRCLE
  8
PIN_TOP
 10
17.889957
 20
38.452044
 40
0.698500
  0
CIRCLE
  8
PIN_TOP
 10
15.349957
 20
39.722044
 40
0.698500
  0
CIRCLE
  8
PIN_TOP
 10
17.889957
 20
40.992044
 40
0.698500
  0
CIRCLE
  8
PIN_TOP
 10
12.049989
 20
27.526996
 40
1.206500
  0
CIRCLE
  8
PIN_TOP
 10
12.049989
 20
43.016932
 40
1.206500
  0
CIRCLE
  8
PIN_TOP
 10
8.999957
 20
29.556964
 40
1.587500
  0
CIRCLE
  8
PIN_TOP
 10
8.999957
 20
40.986964
 40
1.587500
  0
POLYLINE
  8
PG_SILKSCREEN_TOP
 66
1
 70
0
 40
0.000000
 41
0.000000
 39
0.000000
  0
VERTEX
  8
PG_SILKSCREEN_TOP
 10
10.199853
 20
43.372024
 40
0.150114
 41
0.150114
 42
0.000000
  0
VERTEX
  8
PG_SILKSCREEN_TOP
 10
-2.000021
 20
43.372024
 40
0.150114
 41
0.150114
 42
0.000000
  0
VERTEX
  8
PG_SILKSCREEN_TOP
 10
-2.000021
 20
27.171904
 40
0.150114
 41
0.150114
 42
0.000000
  0
SEQEND
  0
POLYLINE
  8
PG_SILKSCREEN_TOP
 66
1
 70
0
 40
0.000000
 41
0.000000
 39
0.000000
  0
VERTEX
  8
PG_SILKSCREEN_TOP
 10
13.999947
 20
27.171904
 40
0.150114
 41
0.150114
 42
0.000000
  0
VERTEX
  8
PG_SILKSCREEN_TOP
 10
19.299911
 20
27.171904
 40
0.150114
 41
0.150114
 42
0.000000
  0
VERTEX
  8
PG_SILKSCREEN_TOP
 10
19.299911
 20
43.372024
 40
0.150114
 41
0.150114
 42
0.000000
  0
VERTEX
  8
PG_SILKSCREEN_TOP
 10
13.999947
 20
43.372024
 40
0.150114
 41
0.150114
 42
0.000000
  0
SEQEND
  0
POLYLINE
  8
PG_SILKSCREEN_TOP
 66
1
 70
0
 40
0.000000
 41
0.000000
 39
0.000000
  0
VERTEX
  8
PG_SILKSCREEN_TOP
 10
2.699995
 20
30.171898
 40
0.150114
 41
0.150114
 42
0.000000
  0
VERTEX
  8
PG_SILKSCREEN_TOP
 10
2.699995
 20
29.271976
 40
0.150114
 41
0.150114
 42
0.000000
  0
SEQEND
  0
POLYLINE
  8
PG_SILKSCREEN_TOP
 66
1
 70
0
 40
0.000000
 41
0.000000
 39
0.000000
  0
VERTEX
  8
PG_SILKSCREEN_TOP
 10
2.699995
 20
30.171898
 40
0.150114
 41
0.150114
 42
0.000000
  0
VERTEX
  8
PG_SILKSCREEN_TOP
 10
2.699995
 20
30.571948
 40
0.150114
 41
0.150114
 42
0.000000
  0
SEQEND
  0
POLYLINE
  8
PG_SILKSCREEN_TOP
 66
1
 70
0
 40
0.000000
 41
0.000000
 39
0.000000
  0
VERTEX
  8
PG_SILKSCREEN_TOP
 10
3.199867
 20
29.672026
 40
0.150114
 41
0.150114
 42
0.000000
  0
VERTEX
  8
PG_SILKSCREEN_TOP
 10
2.199869
 20
29.672026
 40
0.150114
 41
0.150114
 42
0.000000
  0
VERTEX
  8
PG_SILKSCREEN_TOP
 10
2.699995
 20
30.171898
 40
0.150114
 41
0.150114
 42
0.000000
  0
VERTEX
  8
PG_SILKSCREEN_TOP
 10
3.199867
 20
29.672026
 40
0.150114
 41
0.150114
 42
0.000000
  0
SEQEND
  0
POLYLINE
  8
PG_SILKSCREEN_TOP
 66
1
 70
0
 40
0.000000
 41
0.000000
 39
0.000000
  0
VERTEX
  8
PG_SILKSCREEN_TOP
 10
3.199867
 20
30.171898
 40
0.150114
 41
0.150114
 42
0.000000
  0
VERTEX
  8
PG_SILKSCREEN_TOP
 10
2.199869
 20
30.171898
 40
0.150114
 41
0.150114
 42
0.000000
  0
SEQEND
  0
POLYLINE
  8
PG_SILKSCREEN_TOP
 66
1
 70
0
 40
0.000000
 41
0.000000
 39
0.000000
  0
VERTEX
  8
PG_SILKSCREEN_TOP
 10
2.699995
 20
40.372030
 40
0.150114
 41
0.150114
 42
0.000000
  0
VERTEX
  8
PG_SILKSCREEN_TOP
 10
2.699995
 20
41.271952
 40
0.150114
 41
0.150114
 42
0.000000
  0
SEQEND
  0
POLYLINE
  8
PG_SILKSCREEN_TOP
 66
1
 70
0
 40
0.000000
 41
0.000000
 39
0.000000
  0
VERTEX
  8
PG_SILKSCREEN_TOP
 10
2.699995
 20
40.372030
 40
0.150114
 41
0.150114
 42
0.000000
  0
VERTEX
  8
PG_SILKSCREEN_TOP
 10
2.699995
 20
39.971980
 40
0.150114
 41
0.150114
 42
0.000000
  0
SEQEND
  0
POLYLINE
  8
PG_SILKSCREEN_TOP
 66
1
 70
0
 40
0.000000
 41
0.000000
 39
0.000000
  0
VERTEX
  8
PG_SILKSCREEN_TOP
 10
2.199869
 20
40.372030
 40
0.150114
 41
0.150114
 42
0.000000
  0
VERTEX
  8
PG_SILKSCREEN_TOP
 10
3.199867
 20
40.372030
 40
0.150114
 41
0.150114
 42
0.000000
  0
SEQEND
  0
POLYLINE
  8
PG_SILKSCREEN_TOP
 66
1
 70
0
 40
0.000000
 41
0.000000
 39
0.000000
  0
VERTEX
  8
PG_SILKSCREEN_TOP
 10
2.199869
 20
40.871902
 40
0.150114
 41
0.150114
 42
0.000000
  0
VERTEX
  8
PG_SILKSCREEN_TOP
 10
3.199867
 20
40.871902
 40
0.150114
 41
0.150114
 42
0.000000
  0
VERTEX
  8
PG_SILKSCREEN_TOP
 10
2.699995
 20
40.372030
 40
0.150114
 41
0.150114
 42
0.000000
  0
VERTEX
  8
PG_SILKSCREEN_TOP
 10
2.199869
 20
40.871902
 40
0.150114
 41
0.150114
 42
0.000000
  0
SEQEND
  0
POLYLINE
  8
PG_SILKSCREEN_TOP
 66
1
 70
0
 40
0.000000
 41
0.000000
 39
0.000000
  0
VERTEX
  8
PG_SILKSCREEN_TOP
 10
-2.000021
 20
27.171904
 40
0.150114
 41
0.150114
 42
0.000000
  0
VERTEX
  8
PG_SILKSCREEN_TOP
 10
10.199853
 20
27.171904
 40
0.150114
 41
0.150114
 42
0.000000
  0
SEQEND
  0
TEXT
  8
PG_SILKSCREEN_TOP
 10
5.999963
 20
40.372030
 11
0.000000
 21
0.000000
 40
0.711200
 41
1.071429
 50
90.000000
  7
STANDARD
 71
0
 72
0
  1
G
 73
0
  0
TEXT
  8
PG_SILKSCREEN_TOP
 10
5.999963
 20
29.571950
 11
0.000000
 21
0.000000
 40
0.711200
 41
1.071429
 50
90.000000
  7
STANDARD
 71
0
 72
0
  1
Y
 73
0
  0
CIRCLE
  8
PIN_TOP
 10
9.906000
 20
56.134000
 40
0.508000
  0
POLYLINE
  8
PG_SILKSCREEN_TOP
 66
1
 70
0
 40
0.000000
 41
0.000000
 39
0.000000
  0
VERTEX
  8
PG_SILKSCREEN_TOP
 10
11.430000
 20
56.134000
 40
0.154889
 41
0.154889
 42
1.000000
  0
VERTEX
  8
PG_SILKSCREEN_TOP
 10
8.382000
 20
56.134000
 40
0.154889
 41
0.154889
 42
1.000000
  0
VERTEX
  8
PG_SILKSCREEN_TOP
 10
11.430000
 20
56.134000
 40
0.154889
 41
0.154889
 42
0.000000
  0
SEQEND
  0
CIRCLE
  8
PIN_TOP
 10
89.916000
 20
56.159400
 40
0.508000
  0
POLYLINE
  8
PG_SILKSCREEN_TOP
 66
1
 70
0
 40
0.000000
 41
0.000000
 39
0.000000
  0
VERTEX
  8
PG_SILKSCREEN_TOP
 10
91.440000
 20
56.159400
 40
0.154889
 41
0.154889
 42
1.000000
  0
VERTEX
  8
PG_SILKSCREEN_TOP
 10
88.392000
 20
56.159400
 40
0.154889
 41
0.154889
 42
1.000000
  0
VERTEX
  8
PG_SILKSCREEN_TOP
 10
91.440000
 20
56.159400
 40
0.154889
 41
0.154889
 42
0.000000
  0
SEQEND
  0
CIRCLE
  8
PIN_TOP
 10
89.916000
 20
3.810000
 40
0.508000
  0
POLYLINE
  8
PG_SILKSCREEN_TOP
 66
1
 70
0
 40
0.000000
 41
0.000000
 39
0.000000
  0
VERTEX
  8
PG_SILKSCREEN_TOP
 10
91.440000
 20
3.810000
 40
0.154889
 41
0.154889
 42
1.000000
  0
VERTEX
  8
PG_SILKSCREEN_TOP
 10
88.392000
 20
3.810000
 40
0.154889
 41
0.154889
 42
1.000000
  0
VERTEX
  8
PG_SILKSCREEN_TOP
 10
91.440000
 20
3.810000
 40
0.154889
 41
0.154889
 42
0.000000
  0
SEQEND
  0
POLYLINE
  8
PIN_TOP
 66
1
 70
1
 40
0.000000
 41
0.000000
 39
0.000000
  0
VERTEX
  8
PIN_TOP
 10
59.229955
 20
6.791960
 40
0.000000
 41
0.000000
 42
0.000000
  0
VERTEX
  8
PIN_TOP
 10
59.229955
 20
5.192065
 40
0.000000
 41
0.000000
 42
0.000000
  0
VERTEX
  8
PIN_TOP
 10
57.630060
 20
5.192065
 40
0.000000
 41
0.000000
 42
0.000000
  0
VERTEX
  8
PIN_TOP
 10
57.630060
 20
6.791960
 40
0.000000
 41
0.000000
 42
0.000000
  0
SEQEND
  0
CIRCLE
  8
PIN_TOP
 10
58.430008
 20
3.452012
 40
0.799948
  0
CIRCLE
  8
PIN_TOP
 10
55.890008
 20
5.992012
 40
0.799948
  0
CIRCLE
  8
PIN_TOP
 10
55.890008
 20
3.452012
 40
0.799948
  0
CIRCLE
  8
PIN_TOP
 10
53.350008
 20
5.992012
 40
0.799948
  0
CIRCLE
  8
PIN_TOP
 10
53.350008
 20
3.452012
 40
0.799948
  0
CIRCLE
  8
PIN_TOP
 10
50.810008
 20
5.992012
 40
0.799948
  0
CIRCLE
  8
PIN_TOP
 10
50.810008
 20
3.452012
 40
0.799948
  0
CIRCLE
  8
PIN_TOP
 10
48.270008
 20
5.992012
 40
0.799948
  0
CIRCLE
  8
PIN_TOP
 10
48.270008
 20
3.452012
 40
0.799948
  0
CIRCLE
  8
PIN_TOP
 10
45.730008
 20
5.992012
 40
0.799948
  0
CIRCLE
  8
PIN_TOP
 10
45.730008
 20
3.452012
 40
0.799948
  0
CIRCLE
  8
PIN_TOP
 10
43.190008
 20
5.992012
 40
0.799948
  0
CIRCLE
  8
PIN_TOP
 10
43.190008
 20
3.452012
 40
0.799948
  0
CIRCLE
  8
PIN_TOP
 10
40.650008
 20
5.992012
 40
0.799948
  0
CIRCLE
  8
PIN_TOP
 10
40.650008
 20
3.452012
 40
0.799948
  0
CIRCLE
  8
PIN_TOP
 10
38.110008
 20
5.992012
 40
0.799948
  0
CIRCLE
  8
PIN_TOP
 10
38.110008
 20
3.452012
 40
0.799948
  0
CIRCLE
  8
PIN_TOP
 10
35.570008
 20
5.992012
 40
0.799948
  0
CIRCLE
  8
PIN_TOP
 10
35.570008
 20
3.452012
 40
0.799948
  0
POLYLINE
  8
PG_SILKSCREEN_TOP
 66
1
 70
0
 40
0.000000
 41
0.000000
 39
0.000000
  0
VERTEX
  8
PG_SILKSCREEN_TOP
 10
57.160008
 20
7.262012
 40
0.127000
 41
0.127000
 42
0.000000
  0
VERTEX
  8
PG_SILKSCREEN_TOP
 10
57.160008
 20
4.722012
 40
0.127000
 41
0.127000
 42
0.000000
  0
SEQEND
  0
POLYLINE
  8
PG_SILKSCREEN_TOP
 66
1
 70
0
 40
0.000000
 41
0.000000
 39
0.000000
  0
VERTEX
  8
PG_SILKSCREEN_TOP
 10
57.160008
 20
4.722012
 40
0.127000
 41
0.127000
 42
0.000000
  0
VERTEX
  8
PG_SILKSCREEN_TOP
 10
59.700008
 20
4.722012
 40
0.127000
 41
0.127000
 42
0.000000
  0
SEQEND
  0
POLYLINE
  8
PG_SILKSCREEN_TOP
 66
1
 70
0
 40
0.000000
 41
0.000000
 39
0.000000
  0
VERTEX
  8
PG_SILKSCREEN_TOP
 10
59.700008
 20
2.182012
 40
0.127000
 41
0.127000
 42
0.000000
  0
VERTEX
  8
PG_SILKSCREEN_TOP
 10
34.300008
 20
2.182012
 40
0.127000
 41
0.127000
 42
0.000000
  0
SEQEND
  0
POLYLINE
  8
PG_SILKSCREEN_TOP
 66
1
 70
0
 40
0.000000
 41
0.000000
 39
0.000000
  0
VERTEX
  8
PG_SILKSCREEN_TOP
 10
34.300008
 20
2.182012
 40
0.127000
 41
0.127000
 42
0.000000
  0
VERTEX
  8
PG_SILKSCREEN_TOP
 10
34.300008
 20
7.262012
 40
0.127000
 41
0.127000
 42
0.000000
  0
SEQEND
  0
POLYLINE
  8
PG_SILKSCREEN_TOP
 66
1
 70
0
 40
0.000000
 41
0.000000
 39
0.000000
  0
VERTEX
  8
PG_SILKSCREEN_TOP
 10
34.300008
 20
7.262012
 40
0.127000
 41
0.127000
 42
0.000000
  0
VERTEX
  8
PG_SILKSCREEN_TOP
 10
59.700008
 20
7.262012
 40
0.127000
 41
0.127000
 42
0.000000
  0
SEQEND
  0
POLYLINE
  8
PG_SILKSCREEN_TOP
 66
1
 70
0
 40
0.000000
 41
0.000000
 39
0.000000
  0
VERTEX
  8
PG_SILKSCREEN_TOP
 10
59.700008
 20
7.262012
 40
0.127000
 41
0.127000
 42
0.000000
  0
VERTEX
  8
PG_SILKSCREEN_TOP
 10
59.700008
 20
2.182012
 40
0.127000
 41
0.127000
 42
0.000000
  0
SEQEND
  0
POLYLINE
  8
PG_SILKSCREEN_TOP
 66
1
 70
0
 40
0.000000
 41
0.000000
 39
0.000000
  0
VERTEX
  8
PG_SILKSCREEN_TOP
 10
49.540008
 20
7.262012
 40
0.150012
 41
0.150012
 42
0.000000
  0
VERTEX
  8
PG_SILKSCREEN_TOP
 10
49.540008
 20
4.722012
 40
0.150012
 41
0.150012
 42
0.000000
  0
VERTEX
  8
PG_SILKSCREEN_TOP
 10
44.460008
 20
4.722012
 40
0.150012
 41
0.150012
 42
0.000000
  0
VERTEX
  8
PG_SILKSCREEN_TOP
 10
44.460008
 20
7.262012
 40
0.150012
 41
0.150012
 42
0.000000
  0
SEQEND
  0
TEXT
  8
PG_SILKSCREEN_TOP
 10
60.172600
 20
5.994400
 11
0.000000
 21
0.000000
 40
0.711200
 41
1.071429
 50
0.000000
  7
STANDARD
 71
0
 72
0
  1
1
 73
0
  0
TEXT
  8
PG_SILKSCREEN_TOP
 10
60.299600
 20
2.946400
 11
0.000000
 21
0.000000
 40
0.711200
 41
1.071429
 50
0.000000
  7
STANDARD
 71
0
 72
0
  1
2
 73
0
  0
POLYLINE
  8
PIN_TOP
 66
1
 70
1
 40
0.000000
 41
0.000000
 39
0.000000
  0
VERTEX
  8
PIN_TOP
 10
22.070060
 20
53.081047
 40
0.000000
 41
0.000000
 42
0.000000
  0
VERTEX
  8
PIN_TOP
 10
22.070060
 20
54.680942
 40
0.000000
 41
0.000000
 42
0.000000
  0
VERTEX
  8
PIN_TOP
 10
23.669955
 20
54.680942
 40
0.000000
 41
0.000000
 42
0.000000
  0
VERTEX
  8
PIN_TOP
 10
23.669955
 20
53.081047
 40
0.000000
 41
0.000000
 42
0.000000
  0
SEQEND
  0
CIRCLE
  8
PIN_TOP
 10
22.870008
 20
56.420995
 40
0.799948
  0
CIRCLE
  8
PIN_TOP
 10
25.410008
 20
53.880995
 40
0.799948
  0
CIRCLE
  8
PIN_TOP
 10
25.410008
 20
56.420995
 40
0.799948
  0
CIRCLE
  8
PIN_TOP
 10
27.950008
 20
53.880995
 40
0.799948
  0
CIRCLE
  8
PIN_TOP
 10
27.950008
 20
56.420995
 40
0.799948
  0
CIRCLE
  8
PIN_TOP
 10
30.490008
 20
53.880995
 40
0.799948
  0
CIRCLE
  8
PIN_TOP
 10
30.490008
 20
56.420995
 40
0.799948
  0
CIRCLE
  8
PIN_TOP
 10
33.030008
 20
53.880995
 40
0.799948
  0
CIRCLE
  8
PIN_TOP
 10
33.030008
 20
56.420995
 40
0.799948
  0
CIRCLE
  8
PIN_TOP
 10
35.570008
 20
53.880995
 40
0.799948
  0
CIRCLE
  8
PIN_TOP
 10
35.570008
 20
56.420995
 40
0.799948
  0
CIRCLE
  8
PIN_TOP
 10
38.110008
 20
53.880995
 40
0.799948
  0
CIRCLE
  8
PIN_TOP
 10
38.110008
 20
56.420995
 40
0.799948
  0
CIRCLE
  8
PIN_TOP
 10
40.650008
 20
53.880995
 40
0.799948
  0
CIRCLE
  8
PIN_TOP
 10
40.650008
 20
56.420995
 40
0.799948
  0
CIRCLE
  8
PIN_TOP
 10
43.190008
 20
53.880995
 40
0.799948
  0
CIRCLE
  8
PIN_TOP
 10
43.190008
 20
56.420995
 40
0.799948
  0
CIRCLE
  8
PIN_TOP
 10
45.730008
 20
53.880995
 40
0.799948
  0
CIRCLE
  8
PIN_TOP
 10
45.730008
 20
56.420995
 40
0.799948
  0
CIRCLE
  8
PIN_TOP
 10
48.270008
 20
53.880995
 40
0.799948
  0
CIRCLE
  8
PIN_TOP
 10
48.270008
 20
56.420995
 40
0.799948
  0
CIRCLE
  8
PIN_TOP
 10
50.810008
 20
53.880995
 40
0.799948
  0
CIRCLE
  8
PIN_TOP
 10
50.810008
 20
56.420995
 40
0.799948
  0
CIRCLE
  8
PIN_TOP
 10
53.350008
 20
53.880995
 40
0.799948
  0
CIRCLE
  8
PIN_TOP
 10
53.350008
 20
56.420995
 40
0.799948
  0
CIRCLE
  8
PIN_TOP
 10
55.890008
 20
53.880995
 40
0.799948
  0
CIRCLE
  8
PIN_TOP
 10
55.890008
 20
56.420995
 40
0.799948
  0
CIRCLE
  8
PIN_TOP
 10
58.430008
 20
53.880995
 40
0.799948
  0
CIRCLE
  8
PIN_TOP
 10
58.430008
 20
56.420995
 40
0.799948
  0
POLYLINE
  8
PG_SILKSCREEN_TOP
 66
1
 70
0
 40
0.000000
 41
0.000000
 39
0.000000
  0
VERTEX
  8
PG_SILKSCREEN_TOP
 10
24.140008
 20
52.610995
 40
0.127000
 41
0.127000
 42
0.000000
  0
VERTEX
  8
PG_SILKSCREEN_TOP
 10
24.140008
 20
55.150995
 40
0.127000
 41
0.127000
 42
0.000000
  0
SEQEND
  0
POLYLINE
  8
PG_SILKSCREEN_TOP
 66
1
 70
0
 40
0.000000
 41
0.000000
 39
0.000000
  0
VERTEX
  8
PG_SILKSCREEN_TOP
 10
24.140008
 20
55.150995
 40
0.127000
 41
0.127000
 42
0.000000
  0
VERTEX
  8
PG_SILKSCREEN_TOP
 10
21.600008
 20
55.150995
 40
0.127000
 41
0.127000
 42
0.000000
  0
SEQEND
  0
POLYLINE
  8
PG_SILKSCREEN_TOP
 66
1
 70
0
 40
0.000000
 41
0.000000
 39
0.000000
  0
VERTEX
  8
PG_SILKSCREEN_TOP
 10
21.600008
 20
57.690995
 40
0.127000
 41
0.127000
 42
0.000000
  0
VERTEX
  8
PG_SILKSCREEN_TOP
 10
59.700008
 20
57.690995
 40
0.127000
 41
0.127000
 42
0.000000
  0
SEQEND
  0
POLYLINE
  8
PG_SILKSCREEN_TOP
 66
1
 70
0
 40
0.000000
 41
0.000000
 39
0.000000
  0
VERTEX
  8
PG_SILKSCREEN_TOP
 10
59.700008
 20
57.690995
 40
0.127000
 41
0.127000
 42
0.000000
  0
VERTEX
  8
PG_SILKSCREEN_TOP
 10
59.700008
 20
52.610995
 40
0.127000
 41
0.127000
 42
0.000000
  0
SEQEND
  0
POLYLINE
  8
PG_SILKSCREEN_TOP
 66
1
 70
0
 40
0.000000
 41
0.000000
 39
0.000000
  0
VERTEX
  8
PG_SILKSCREEN_TOP
 10
59.700008
 20
52.610995
 40
0.127000
 41
0.127000
 42
0.000000
  0
VERTEX
  8
PG_SILKSCREEN_TOP
 10
21.600008
 20
52.610995
 40
0.127000
 41
0.127000
 42
0.000000
  0
SEQEND
  0
POLYLINE
  8
PG_SILKSCREEN_TOP
 66
1
 70
0
 40
0.000000
 41
0.000000
 39
0.000000
  0
VERTEX
  8
PG_SILKSCREEN_TOP
 10
21.600008
 20
52.610995
 40
0.127000
 41
0.127000
 42
0.000000
  0
VERTEX
  8
PG_SILKSCREEN_TOP
 10
21.600008
 20
57.690995
 40
0.127000
 41
0.127000
 42
0.000000
  0
SEQEND
  0
POLYLINE
  8
PG_SILKSCREEN_TOP
 66
1
 70
0
 40
0.000000
 41
0.000000
 39
0.000000
  0
VERTEX
  8
PG_SILKSCREEN_TOP
 10
36.840008
 20
52.610995
 40
0.150012
 41
0.150012
 42
0.000000
  0
VERTEX
  8
PG_SILKSCREEN_TOP
 10
36.840008
 20
55.150995
 40
0.150012
 41
0.150012
 42
0.000000
  0
VERTEX
  8
PG_SILKSCREEN_TOP
 10
44.460008
 20
55.150995
 40
0.150012
 41
0.150012
 42
0.000000
  0
VERTEX
  8
PG_SILKSCREEN_TOP
 10
44.460008
 20
52.610995
 40
0.150012
 41
0.150012
 42
0.000000
  0
SEQEND
  0
TEXT
  8
PG_SILKSCREEN_TOP
 10
20.770596
 20
53.719400
 11
0.000000
 21
0.000000
 40
0.711200
 41
1.071429
 50
0.000000
  7
STANDARD
 71
0
 72
0
  1
1
 73
0
  0
TEXT
  8
PG_SILKSCREEN_TOP
 10
20.770596
 20
56.005400
 11
0.000000
 21
0.000000
 40
0.711200
 41
1.071429
 50
0.000000
  7
STANDARD
 71
0
 72
0
  1
2
 73
0
  0
POLYLINE
  8
BG_OUTLINE
 66
1
 70
0
 40
0.000000
 41
0.000000
 39
0.000000
  0
VERTEX
  8
BG_OUTLINE
 10
3.115666
 20
52.615719
 40
0.000000
 41
0.000000
 42
0.000000
  0
VERTEX
  8
BG_OUTLINE
 10
0.000000
 20
52.615719
 40
0.000000
 41
0.000000
 42
0.000000
  0
SEQEND
  0
POLYLINE
  8
BG_OUTLINE
 66
1
 70
0
 40
0.000000
 41
0.000000
 39
0.000000
  0
VERTEX
  8
BG_OUTLINE
 10
0.000000
 20
56.070119
 40
0.000000
 41
0.000000
 42
0.000000
  0
VERTEX
  8
BG_OUTLINE
 10
0.000000
 20
59.000009
 40
0.000000
 41
0.000000
 42
-0.414214
  0
VERTEX
  8
BG_OUTLINE
 10
0.999998
 20
60.000007
 40
0.000000
 41
0.000000
 42
0.000000
  0
VERTEX
  8
BG_OUTLINE
 10
99.000005
 20
60.000007
 40
0.000000
 41
0.000000
 42
-0.414214
  0
VERTEX
  8
BG_OUTLINE
 10
100.000003
 20
59.000009
 40
0.000000
 41
0.000000
 42
0.000000
  0
VERTEX
  8
BG_OUTLINE
 10
100.000003
 20
55.099991
 40
0.000000
 41
0.000000
 42
0.000000
  0
SEQEND
  0
POLYLINE
  8
BG_OUTLINE
 66
1
 70
0
 40
0.000000
 41
0.000000
 39
0.000000
  0
VERTEX
  8
BG_OUTLINE
 10
100.000003
 20
55.099991
 40
0.000000
 41
0.000000
 42
0.000000
  0
VERTEX
  8
BG_OUTLINE
 10
100.000003
 20
5.099990
 40
0.000000
 41
0.000000
 42
0.000000
  0
SEQEND
  0
POLYLINE
  8
BG_OUTLINE
 66
1
 70
1
 40
0.000000
 41
0.000000
 39
0.000000
  0
VERTEX
  8
BG_OUTLINE
 10
3.115666
 20
55.587519
 40
0.000000
 41
0.000000
 42
0.000000
  0
VERTEX
  8
BG_OUTLINE
 10
3.115666
 20
56.070119
 40
0.000000
 41
0.000000
 42
0.000000
  0
VERTEX
  8
BG_OUTLINE
 10
0.000000
 20
56.070119
 40
0.000000
 41
0.000000
 42
0.000000
  0
VERTEX
  8
BG_OUTLINE
 10
0.000000
 20
59.000009
 40
0.000000
 41
0.000000
 42
-0.414214
  0
VERTEX
  8
BG_OUTLINE
 10
0.999998
 20
60.000007
 40
0.000000
 41
0.000000
 42
0.000000
  0
VERTEX
  8
BG_OUTLINE
 10
99.000005
 20
60.000007
 40
0.000000
 41
0.000000
 42
-0.414214
  0
VERTEX
  8
BG_OUTLINE
 10
100.000003
 20
59.000009
 40
0.000000
 41
0.000000
 42
0.000000
  0
VERTEX
  8
BG_OUTLINE
 10
100.000003
 20
55.099991
 40
0.000000
 41
0.000000
 42
0.000000
  0
VERTEX
  8
BG_OUTLINE
 10
100.000003
 20
5.099990
 40
0.000000
 41
0.000000
 42
0.000000
  0
VERTEX
  8
BG_OUTLINE
 10
100.000003
 20
0.999998
 40
0.000000
 41
0.000000
 42
-0.414214
  0
VERTEX
  8
BG_OUTLINE
 10
99.000005
 20
0.000000
 40
0.000000
 41
0.000000
 42
0.000000
  0
VERTEX
  8
BG_OUTLINE
 10
0.999998
 20
0.000000
 40
0.000000
 41
0.000000
 42
-0.414214
  0
VERTEX
  8
BG_OUTLINE
 10
0.000000
 20
0.999998
 40
0.000000
 41
0.000000
 42
0.000000
  0
VERTEX
  8
BG_OUTLINE
 10
0.000000
 20
52.615719
 40
0.000000
 41
0.000000
 42
0.000000
  0
VERTEX
  8
BG_OUTLINE
 10
3.115666
 20
52.615719
 40
0.000000
 41
0.000000
 42
0.000000
  0
SEQEND
  0
ENDSEC
  0
EOF
